<svg xmlns="http://www.w3.org/2000/svg" xmlns:xlink="http://www.w3.org/1999/xlink" width="64" zoomAndPan="magnify" viewBox="0 0 48 48" height="64" preserveAspectRatio="xMidYMid meet" version="1.0"><defs><clipPath id="659b979b4c"><path d="M 6 5.179688 L 42.660156 5.179688 L 42.660156 41.914062 L 6 41.914062 Z M 6 5.179688 " clip-rule="nonzero"/></clipPath></defs><g clip-path="url(#659b979b4c)"><path fill="#ffffff" d="M 8.792969 9.582031 C 9.242188 9.132812 9.925781 9.816406 9.476562 10.265625 C 8.777344 10.960938 9.550781 12.28125 8.699219 12.347656 C 7.757812 12.414062 8.164062 10.210938 8.792969 9.582031 Z M 9.96875 36.882812 C 11.066406 36.882812 11.066406 38.550781 9.96875 38.550781 C 8.871094 38.550781 8.871094 36.882812 9.96875 36.882812 Z M 37.089844 36.882812 C 35.988281 36.882812 35.988281 38.550781 37.089844 38.550781 C 38.1875 38.550781 38.1875 36.882812 37.089844 36.882812 Z M 21.050781 25.027344 L 7.492188 37.449219 C 7.25 37.679688 7.269531 37.980469 7.53125 38.234375 L 9.546875 40.253906 C 9.746094 40.441406 10.054688 40.429688 10.261719 40.222656 L 22.613281 26.738281 Z M 23.460938 27.660156 L 11.042969 41.203125 C 10.332031 41.824219 9.289062 41.777344 8.609375 41.085938 L 6.535156 39.007812 C 5.910156 38.382812 5.902344 37.210938 6.648438 36.53125 L 20.207031 24.105469 L 17.464844 21.117188 C 13.253906 22.238281 7.714844 17.867188 6.675781 13.070312 C 5.203125 6.304688 12.625 5.589844 17.371094 10.332031 C 19.429688 12.390625 21.046875 15.5625 20.328125 18.253906 L 23.460938 21.125 L 27.339844 17.570312 L 27.375 13.65625 C 27.382812 12.886719 27.683594 12.21875 28.257812 11.707031 L 35.054688 5.648438 C 35.578125 5.179688 36.191406 5.316406 36.695312 5.800781 C 37.191406 6.269531 37.769531 6.816406 37.054688 7.632812 L 33.457031 11.757812 L 37.535156 8.125 C 37.96875 7.734375 38.644531 7.753906 39.058594 8.167969 L 39.058594 8.171875 C 39.628906 8.714844 40.375 9.292969 39.585938 10.179688 L 35.953125 14.253906 L 40.078125 10.65625 C 40.605469 10.191406 41.207031 10.335938 41.707031 10.8125 C 42.203125 11.28125 42.792969 11.839844 42.0625 12.65625 L 36.007812 19.453125 C 35.496094 20.027344 34.824219 20.332031 34.054688 20.335938 L 30.140625 20.371094 L 26.714844 24.109375 L 40.414062 36.667969 C 41.039062 37.378906 40.984375 38.4375 40.292969 39.105469 L 38.21875 41.175781 C 37.503906 41.828125 36.394531 41.777344 35.742188 41.066406 Z M 25.796875 23.265625 L 29.402344 19.328125 C 29.523438 19.195312 29.691406 19.128906 29.859375 19.125 L 34.042969 19.085938 C 34.453125 19.082031 34.796875 18.929688 35.070312 18.621094 L 41.0625 11.894531 C 41.28125 11.648438 40.992188 11.492188 40.800781 11.683594 L 35.242188 16.539062 C 34.519531 17.167969 34.132812 16.578125 33.695312 16.140625 C 33.371094 15.816406 33.355469 15.285156 33.660156 14.945312 L 38.546875 9.460938 C 38.769531 9.210938 38.449219 8.992188 38.199219 9.210938 L 32.765625 14.050781 C 32.046875 14.691406 31.652344 14.097656 31.210938 13.65625 C 30.890625 13.335938 30.875 12.816406 31.175781 12.472656 L 36.039062 6.898438 C 36.277344 6.625 35.984375 6.476562 35.792969 6.671875 L 29.089844 12.640625 C 28.785156 12.917969 28.628906 13.257812 28.625 13.667969 L 28.585938 17.855469 C 28.585938 18.042969 28.5 18.210938 28.367188 18.324219 L 24.386719 21.972656 Z M 17.128906 9.28125 C 16.390625 9.648438 15.832031 8.527344 16.570312 8.15625 C 21.074219 5.914062 26.363281 5.765625 30.988281 7.753906 C 31.746094 8.078125 31.25 9.230469 30.496094 8.90625 C 26.210938 7.0625 21.300781 7.195312 17.128906 9.28125 Z M 38.808594 17.214844 C 38.480469 16.460938 39.632812 15.964844 39.957031 16.722656 C 42.3125 22.191406 41.660156 28.496094 38.230469 33.367188 C 37.757812 34.039062 36.734375 33.316406 37.203125 32.644531 C 40.382812 28.136719 40.992188 22.28125 38.808594 17.214844 Z M 31.589844 37.578125 C 32.316406 37.199219 32.894531 38.304688 32.167969 38.6875 C 26.816406 41.488281 20.375 41.273438 15.234375 38.101562 C 14.535156 37.671875 15.191406 36.605469 15.890625 37.039062 C 20.640625 39.96875 26.644531 40.171875 31.589844 37.578125 Z M 10.675781 31.820312 C 11.105469 32.519531 10.042969 33.175781 9.609375 32.476562 C 6.964844 28.183594 6.359375 22.945312 7.925781 18.148438 C 8.183594 17.363281 9.375 17.753906 9.117188 18.535156 C 7.664062 22.980469 8.222656 27.839844 10.675781 31.820312 Z M 18.136719 20 L 36.664062 40.21875 C 36.914062 40.472656 37.210938 40.429688 37.445312 40.179688 L 39.488281 38.140625 C 39.667969 37.933594 39.628906 37.636719 39.398438 37.421875 L 19.191406 18.90625 C 18.511719 18.285156 19.871094 17.75 18.875 14.902344 C 16.507812 8.140625 6.359375 5.722656 7.898438 12.804688 C 8.855469 17.207031 14.136719 21.046875 17.4375 19.816406 C 17.695312 19.722656 17.972656 19.800781 18.136719 20 Z M 21.441406 16.03125 C 20.667969 16.316406 20.230469 15.140625 21.007812 14.855469 C 22.808594 14.183594 24.792969 14.101562 26.65625 14.609375 C 27.449219 14.828125 27.121094 16.035156 26.328125 15.816406 C 24.714844 15.375 23.011719 15.449219 21.441406 16.03125 Z M 31.898438 21.382812 C 31.679688 20.589844 32.886719 20.261719 33.101562 21.054688 C 33.730469 23.347656 33.457031 25.78125 32.335938 27.867188 C 31.945312 28.59375 30.84375 28 31.234375 27.273438 C 32.199219 25.476562 32.4375 23.355469 31.898438 21.382812 Z M 26.007812 31.265625 C 26.808594 31.082031 27.089844 32.304688 26.285156 32.488281 C 24.484375 32.902344 22.601562 32.765625 20.882812 32.101562 C 20.113281 31.804688 20.566406 30.636719 21.332031 30.933594 C 22.8125 31.507812 24.457031 31.625 26.007812 31.265625 Z M 16.777344 26.378906 C 17.074219 27.144531 15.910156 27.59375 15.613281 26.828125 C 15.023438 25.308594 14.855469 23.671875 15.105469 22.058594 C 15.234375 21.242188 16.46875 21.4375 16.34375 22.246094 C 16.125 23.640625 16.273438 25.066406 16.777344 26.378906 Z M 8.601562 13.734375 C 8.382812 13.144531 9.28125 12.804688 9.503906 13.402344 C 10.328125 15.601562 12.394531 17.617188 14.605469 18.378906 C 15.207031 18.582031 14.894531 19.496094 14.292969 19.289062 C 11.808594 18.4375 9.53125 16.210938 8.601562 13.734375 Z M 8.601562 13.734375 " fill-opacity="1" fill-rule="nonzero"/></g></svg>