<svg xmlns="http://www.w3.org/2000/svg" xmlns:xlink="http://www.w3.org/1999/xlink" width="64" zoomAndPan="magnify" viewBox="0 0 48 48" height="64" preserveAspectRatio="xMidYMid meet" version="1.0"><defs><clipPath id="99af0e2887"><path d="M 8.460938 4.703125 L 39.316406 4.703125 L 39.316406 42.171875 L 8.460938 42.171875 Z M 8.460938 4.703125 " clip-rule="nonzero"/></clipPath></defs><g clip-path="url(#99af0e2887)"><path fill="#ffffff" d="M 24.800781 14.328125 L 31.226562 14.328125 C 31.648438 14.226562 32.03125 14.015625 32.332031 13.722656 C 32.648438 13.417969 32.882812 13.019531 32.992188 12.574219 C 33.101562 12.125 33.078125 11.667969 32.941406 11.25 C 32.800781 10.832031 32.542969 10.449219 32.1875 10.15625 C 31.832031 9.867188 31.40625 9.691406 30.96875 9.636719 C 30.527344 9.582031 30.070312 9.648438 29.65625 9.84375 C 29.335938 9.992188 28.957031 9.855469 28.808594 9.535156 C 28.757812 9.425781 28.742188 9.3125 28.753906 9.199219 C 28.8125 8.632812 28.679688 8.078125 28.394531 7.617188 C 28.113281 7.152344 27.683594 6.78125 27.152344 6.574219 C 26.617188 6.371094 26.046875 6.355469 25.527344 6.507812 C 25.007812 6.660156 24.539062 6.976562 24.199219 7.441406 C 23.992188 7.722656 23.59375 7.785156 23.308594 7.578125 C 23.238281 7.523438 23.179688 7.460938 23.136719 7.390625 C 22.988281 7.167969 22.777344 7.003906 22.542969 6.914062 C 22.300781 6.820312 22.023438 6.800781 21.757812 6.875 C 21.492188 6.945312 21.265625 7.097656 21.101562 7.300781 C 20.933594 7.507812 20.832031 7.761719 20.816406 8.035156 C 20.800781 8.386719 20.5 8.65625 20.148438 8.636719 C 19.875 8.625 19.652344 8.441406 19.574219 8.195312 C 19.25 7.382812 18.648438 6.75 17.914062 6.375 C 17.167969 5.996094 16.289062 5.882812 15.429688 6.117188 C 14.566406 6.347656 13.863281 6.882812 13.40625 7.582031 C 12.953125 8.28125 12.746094 9.144531 12.886719 10.027344 C 12.941406 10.375 12.703125 10.699219 12.355469 10.753906 C 12.261719 10.769531 12.167969 10.761719 12.082031 10.738281 C 11.746094 10.644531 11.402344 10.644531 11.082031 10.734375 C 10.761719 10.824219 10.464844 11 10.230469 11.253906 C 9.992188 11.507812 9.839844 11.816406 9.773438 12.140625 C 9.707031 12.464844 9.726562 12.8125 9.84375 13.136719 C 9.964844 13.460938 10.167969 13.738281 10.425781 13.945312 C 10.675781 14.144531 10.980469 14.28125 11.308594 14.328125 L 13.234375 14.328125 C 13.703125 14.328125 14.128906 14.519531 14.4375 14.828125 L 14.4375 14.832031 C 14.75 15.140625 14.941406 15.566406 14.941406 16.035156 L 14.941406 19.136719 C 14.941406 19.414062 15.054688 19.667969 15.238281 19.851562 L 15.265625 19.878906 C 15.445312 20.046875 15.6875 20.152344 15.953125 20.152344 C 16.234375 20.152344 16.488281 20.035156 16.671875 19.851562 C 16.855469 19.667969 16.96875 19.414062 16.96875 19.136719 L 16.96875 16.035156 C 16.96875 15.566406 17.160156 15.136719 17.46875 14.828125 L 17.511719 14.789062 C 17.820312 14.503906 18.226562 14.328125 18.675781 14.328125 L 19.359375 14.328125 C 19.828125 14.328125 20.253906 14.519531 20.5625 14.828125 L 20.566406 14.832031 C 20.875 15.140625 21.066406 15.566406 21.066406 16.035156 L 21.066406 16.753906 C 21.066406 17.03125 21.179688 17.285156 21.363281 17.46875 L 21.390625 17.496094 C 21.570312 17.664062 21.8125 17.769531 22.082031 17.769531 C 22.359375 17.769531 22.613281 17.652344 22.796875 17.46875 C 22.980469 17.285156 23.09375 17.03125 23.09375 16.753906 L 23.09375 16.035156 C 23.09375 15.566406 23.285156 15.136719 23.597656 14.828125 L 23.640625 14.789062 C 23.945312 14.503906 24.355469 14.328125 24.800781 14.328125 Z M 25.785156 23.722656 C 25.785156 23.371094 26.074219 23.082031 26.425781 23.082031 C 26.78125 23.082031 27.066406 23.371094 27.066406 23.722656 L 27.066406 32.328125 C 27.066406 32.683594 26.78125 32.96875 26.425781 32.96875 C 26.074219 32.96875 25.785156 32.683594 25.785156 32.328125 Z M 15.4375 23.722656 C 15.4375 23.371094 15.722656 23.082031 16.078125 23.082031 C 16.429688 23.082031 16.714844 23.371094 16.714844 23.722656 L 16.714844 32.328125 C 16.714844 32.683594 16.429688 32.96875 16.078125 32.96875 C 15.722656 32.96875 15.4375 32.683594 15.4375 32.328125 Z M 20.613281 21.414062 C 20.613281 21.058594 20.898438 20.773438 21.25 20.773438 C 21.605469 20.773438 21.890625 21.058594 21.890625 21.414062 L 21.890625 34.640625 C 21.890625 34.992188 21.605469 35.28125 21.25 35.28125 C 20.898438 35.28125 20.613281 34.992188 20.613281 34.640625 Z M 11.855469 37.582031 L 11.855469 15.605469 L 13.234375 15.605469 C 13.351562 15.605469 13.457031 15.65625 13.535156 15.730469 C 13.613281 15.808594 13.660156 15.917969 13.660156 16.035156 L 13.660156 19.136719 C 13.660156 19.769531 13.917969 20.339844 14.335938 20.757812 L 14.375 20.792969 C 14.789062 21.1875 15.34375 21.429688 15.953125 21.429688 C 16.585938 21.429688 17.160156 21.171875 17.574219 20.757812 C 17.992188 20.34375 18.25 19.769531 18.25 19.136719 L 18.25 16.035156 C 18.25 15.917969 18.296875 15.8125 18.375 15.734375 L 18.394531 15.710938 C 18.46875 15.648438 18.570312 15.605469 18.675781 15.605469 L 19.359375 15.605469 C 19.476562 15.605469 19.585938 15.65625 19.660156 15.730469 C 19.738281 15.808594 19.785156 15.917969 19.785156 16.035156 L 19.785156 16.753906 C 19.785156 17.382812 20.042969 17.957031 20.460938 18.375 L 20.5 18.410156 C 20.914062 18.804688 21.46875 19.046875 22.082031 19.046875 C 22.710938 19.046875 23.285156 18.789062 23.699219 18.375 C 24.117188 17.957031 24.375 17.382812 24.375 16.753906 L 24.375 16.035156 C 24.375 15.917969 24.421875 15.8125 24.5 15.734375 L 24.519531 15.710938 C 24.59375 15.648438 24.695312 15.605469 24.800781 15.605469 L 30.648438 15.605469 L 30.648438 37.582031 Z M 30.648438 38.863281 L 11.855469 38.863281 L 11.855469 39.082031 C 11.855469 39.613281 12.074219 40.101562 12.425781 40.453125 C 12.777344 40.804688 13.265625 41.023438 13.800781 41.023438 L 28.703125 41.023438 C 29.238281 41.023438 29.726562 40.804688 30.078125 40.453125 L 30.105469 40.425781 C 30.441406 40.078125 30.648438 39.601562 30.648438 39.082031 Z M 31.929688 15.449219 L 31.929688 17.28125 L 36.445312 17.28125 C 37.292969 17.28125 38.0625 17.628906 38.625 18.1875 L 38.628906 18.191406 C 39.1875 18.75 39.535156 19.523438 39.535156 20.371094 L 39.535156 33.882812 C 39.535156 34.730469 39.1875 35.5 38.628906 36.0625 L 38.625 36.066406 C 38.0625 36.625 37.292969 36.972656 36.445312 36.972656 L 31.929688 36.972656 L 31.929688 39.082031 C 31.929688 39.949219 31.582031 40.738281 31.015625 41.320312 L 30.980469 41.359375 C 30.398438 41.941406 29.589844 42.304688 28.703125 42.304688 L 13.800781 42.304688 C 12.910156 42.304688 12.105469 41.941406 11.519531 41.359375 C 10.9375 40.773438 10.574219 39.96875 10.574219 39.082031 L 10.574219 15.460938 C 10.230469 15.34375 9.914062 15.167969 9.632812 14.945312 C 9.191406 14.59375 8.847656 14.121094 8.644531 13.570312 C 8.445312 13.019531 8.410156 12.4375 8.523438 11.886719 C 8.636719 11.332031 8.898438 10.808594 9.296875 10.382812 C 9.695312 9.957031 10.199219 9.65625 10.742188 9.503906 C 11.011719 9.429688 11.289062 9.390625 11.570312 9.390625 C 11.585938 8.484375 11.859375 7.621094 12.335938 6.886719 C 12.960938 5.929688 13.921875 5.195312 15.097656 4.882812 C 16.273438 4.566406 17.476562 4.71875 18.492188 5.238281 C 19.101562 5.546875 19.644531 5.988281 20.074219 6.535156 L 20.105469 6.496094 C 20.4375 6.089844 20.894531 5.78125 21.425781 5.640625 C 21.957031 5.496094 22.507812 5.535156 22.996094 5.722656 C 23.242188 5.820312 23.476562 5.953125 23.683594 6.117188 C 24.113281 5.726562 24.625 5.445312 25.171875 5.285156 C 25.953125 5.054688 26.808594 5.078125 27.609375 5.386719 C 28.410156 5.695312 29.058594 6.253906 29.484375 6.949219 C 29.753906 7.390625 29.933594 7.882812 30.003906 8.402344 C 30.375 8.332031 30.753906 8.320312 31.125 8.367188 C 31.796875 8.449219 32.449219 8.722656 32.996094 9.167969 C 33.539062 9.613281 33.933594 10.199219 34.148438 10.84375 L 34.148438 10.847656 C 34.363281 11.492188 34.398438 12.195312 34.230469 12.878906 C 34.0625 13.5625 33.707031 14.171875 33.21875 14.640625 C 32.851562 14.996094 32.414062 15.269531 31.929688 15.449219 Z M 31.929688 33.007812 L 35.570312 33.007812 L 35.570312 21.246094 L 31.929688 21.246094 Z M 31.929688 19.964844 L 31.929688 18.558594 L 36.445312 18.558594 C 36.945312 18.558594 37.398438 18.761719 37.722656 19.089844 L 37.726562 19.09375 C 38.050781 19.417969 38.253906 19.871094 38.253906 20.371094 L 38.253906 33.882812 C 38.253906 34.382812 38.050781 34.835938 37.726562 35.160156 L 37.722656 35.164062 C 37.398438 35.492188 36.945312 35.695312 36.445312 35.695312 L 31.929688 35.695312 L 31.929688 34.289062 L 36.210938 34.289062 C 36.5625 34.289062 36.851562 34 36.851562 33.648438 L 36.851562 20.605469 C 36.851562 20.25 36.5625 19.964844 36.210938 19.964844 Z M 31.929688 19.964844 " fill-opacity="1" fill-rule="evenodd"/></g></svg>