<svg xmlns="http://www.w3.org/2000/svg" xmlns:xlink="http://www.w3.org/1999/xlink" width="64" zoomAndPan="magnify" viewBox="0 0 48 48" height="64" preserveAspectRatio="xMidYMid meet" version="1.0"><defs><clipPath id="e1c221907c"><path d="M 5.191406 7.921875 L 42.660156 7.921875 L 42.660156 38.78125 L 5.191406 38.78125 Z M 5.191406 7.921875 " clip-rule="nonzero"/></clipPath></defs><g clip-path="url(#e1c221907c)"><path fill="#ffffff" d="M 7.851562 38.441406 C 7.640625 38.125 7.640625 37.769531 7.816406 37.414062 C 7.921875 37.199219 8.101562 37.023438 8.347656 36.953125 C 8.386719 36.953125 8.386719 36.917969 8.386719 36.882812 L 8.386719 30.175781 C 7.640625 29.785156 7.78125 28.828125 8.347656 28.4375 C 8.386719 28.4375 8.386719 28.402344 8.386719 28.402344 L 8.386719 12.6875 C 8.386719 12.648438 8.347656 12.613281 8.347656 12.613281 C 7.675781 12.222656 7.78125 11.300781 8.527344 11.054688 C 8.597656 11.019531 8.773438 11.019531 8.988281 11.019531 C 12.144531 11.019531 14.949219 11.019531 17.433594 11.019531 C 17.433594 11.019531 17.46875 10.984375 17.46875 10.984375 L 17.46875 9.988281 C 17.46875 9.953125 17.433594 9.953125 17.433594 9.953125 C 17.21875 9.8125 17.078125 9.667969 16.96875 9.492188 C 16.828125 9.207031 16.828125 8.820312 16.96875 8.535156 C 17.113281 8.320312 17.289062 8.144531 17.539062 8.039062 C 17.644531 8.003906 17.894531 7.96875 18.285156 7.96875 C 21.15625 7.96875 24.988281 7.96875 29.8125 7.96875 C 30.132812 7.96875 30.3125 8.003906 30.453125 8.039062 C 31.269531 8.355469 31.410156 9.492188 30.558594 9.917969 C 30.558594 9.917969 30.558594 9.917969 30.558594 9.953125 L 30.558594 10.984375 C 30.558594 10.984375 30.558594 11.019531 30.558594 11.019531 C 30.914062 11.019531 33.789062 11.019531 39.214844 10.984375 C 39.785156 10.984375 40.171875 11.515625 40.066406 12.082031 C 40.03125 12.296875 39.890625 12.472656 39.675781 12.613281 C 39.640625 12.648438 39.640625 12.6875 39.640625 12.6875 L 39.640625 25.246094 L 39.605469 25.246094 L 39.605469 28.507812 C 39.605469 28.542969 39.640625 28.578125 39.640625 28.578125 C 40.28125 28.933594 40.28125 29.785156 39.640625 30.140625 C 39.605469 30.140625 39.605469 30.140625 39.605469 30.175781 L 39.605469 35.605469 L 39.640625 35.605469 L 39.640625 36.953125 C 39.640625 36.953125 39.640625 36.953125 39.640625 36.988281 C 40.28125 37.164062 40.597656 37.875 40.246094 38.441406 C 40.246094 38.476562 40.246094 38.476562 40.246094 38.476562 C 40.28125 38.476562 40.953125 38.476562 42.230469 38.476562 C 42.410156 38.476562 42.550781 38.476562 42.585938 38.476562 C 42.761719 38.550781 42.800781 38.796875 42.65625 38.941406 C 42.585938 39.046875 42.265625 39.046875 42.160156 39.046875 C 37.085938 39.046875 33.964844 39.046875 32.828125 39.046875 C 27.507812 39.046875 18.460938 39.046875 5.6875 39.046875 C 5.546875 39.046875 5.441406 39.011719 5.40625 39.011719 C 5.226562 38.902344 5.191406 38.621094 5.371094 38.515625 C 5.441406 38.476562 5.511719 38.476562 5.652344 38.476562 C 6.183594 38.476562 6.929688 38.476562 7.851562 38.476562 C 7.851562 38.441406 7.851562 38.441406 7.851562 38.441406 Z M 37.691406 27.019531 C 37.691406 27.125 37.582031 27.230469 37.441406 27.230469 L 32.15625 27.230469 C 32.050781 27.230469 31.941406 27.125 31.941406 27.019531 L 31.941406 23.117188 C 31.941406 23.011719 32.050781 22.902344 32.15625 22.902344 L 37.441406 22.902344 C 37.582031 22.902344 37.691406 23.011719 37.691406 23.117188 Z M 37.121094 23.507812 C 37.121094 23.472656 37.085938 23.472656 37.085938 23.472656 L 35.101562 23.472656 C 35.101562 23.472656 35.101562 23.472656 35.101562 23.507812 L 35.101562 26.664062 L 37.085938 26.664062 C 37.085938 26.664062 37.121094 26.664062 37.121094 26.664062 Z M 34.53125 23.507812 C 34.53125 23.472656 34.496094 23.472656 34.496094 23.472656 L 32.511719 23.472656 C 32.511719 23.472656 32.511719 23.472656 32.511719 23.507812 L 32.511719 26.664062 L 34.496094 26.664062 C 34.53125 26.664062 34.53125 26.664062 34.53125 26.664062 Z M 28.074219 27.019531 C 28.074219 27.125 27.96875 27.230469 27.828125 27.230469 L 25.167969 27.230469 C 25.058594 27.230469 24.953125 27.125 24.953125 27.019531 L 24.953125 23.117188 C 24.953125 23.011719 25.058594 22.902344 25.167969 22.902344 L 27.828125 22.902344 C 27.96875 22.902344 28.074219 23.011719 28.074219 23.117188 Z M 27.507812 23.507812 C 27.507812 23.472656 27.507812 23.472656 27.472656 23.472656 L 25.519531 23.472656 C 25.519531 23.472656 25.519531 23.472656 25.519531 23.507812 L 25.519531 26.664062 L 27.472656 26.664062 C 27.507812 26.664062 27.507812 26.664062 27.507812 26.664062 Z M 23.074219 27.019531 C 23.074219 27.125 22.964844 27.230469 22.824219 27.230469 L 20.128906 27.230469 C 20.023438 27.230469 19.914062 27.125 19.914062 27.019531 L 19.914062 23.117188 C 19.914062 23.011719 20.023438 22.902344 20.128906 22.902344 L 22.824219 22.902344 C 22.964844 22.902344 23.074219 23.011719 23.074219 23.117188 Z M 22.503906 23.507812 C 22.503906 23.472656 22.46875 23.472656 22.46875 23.472656 L 20.519531 23.472656 C 20.484375 23.472656 20.484375 23.472656 20.484375 23.507812 L 20.484375 26.628906 C 20.484375 26.664062 20.484375 26.664062 20.519531 26.664062 L 22.46875 26.664062 C 22.46875 26.664062 22.503906 26.664062 22.503906 26.628906 Z M 16.046875 27.019531 C 16.046875 27.125 15.976562 27.230469 15.835938 27.230469 L 10.550781 27.230469 C 10.441406 27.230469 10.335938 27.125 10.335938 27.019531 L 10.335938 23.117188 C 10.335938 23.011719 10.441406 22.902344 10.550781 22.902344 L 15.835938 22.902344 C 15.976562 22.902344 16.046875 23.011719 16.046875 23.117188 Z M 15.515625 23.507812 C 15.515625 23.472656 15.480469 23.472656 15.480469 23.472656 L 13.527344 23.472656 C 13.492188 23.472656 13.492188 23.472656 13.492188 23.507812 L 13.492188 26.664062 C 13.492188 26.664062 13.492188 26.664062 13.527344 26.664062 L 15.480469 26.664062 C 15.480469 26.664062 15.515625 26.664062 15.515625 26.664062 Z M 12.925781 23.507812 C 12.925781 23.472656 12.890625 23.472656 12.890625 23.472656 L 10.902344 23.472656 C 10.902344 23.472656 10.867188 23.472656 10.867188 23.507812 L 10.867188 26.664062 C 10.867188 26.664062 10.902344 26.664062 10.902344 26.664062 L 12.890625 26.664062 C 12.890625 26.664062 12.925781 26.664062 12.925781 26.664062 Z M 32.15625 19.851562 L 37.476562 19.851562 C 37.617188 19.851562 37.726562 19.957031 37.726562 20.101562 L 37.726562 20.171875 C 37.726562 20.3125 37.617188 20.417969 37.476562 20.417969 L 32.15625 20.417969 C 32.011719 20.417969 31.90625 20.3125 31.90625 20.171875 L 31.90625 20.101562 C 31.90625 19.957031 32.011719 19.851562 32.15625 19.851562 Z M 20.128906 19.851562 L 22.824219 19.851562 C 22.964844 19.851562 23.074219 19.957031 23.074219 20.101562 L 23.074219 20.171875 C 23.074219 20.3125 22.964844 20.417969 22.824219 20.417969 L 20.128906 20.417969 C 19.988281 20.417969 19.878906 20.3125 19.878906 20.171875 L 19.878906 20.101562 C 19.878906 19.957031 19.988281 19.851562 20.128906 19.851562 Z M 10.550781 19.851562 L 15.835938 19.851562 C 15.976562 19.851562 16.082031 19.957031 16.082031 20.101562 L 16.082031 20.136719 C 16.082031 20.277344 15.976562 20.417969 15.835938 20.417969 L 10.550781 20.417969 C 10.40625 20.417969 10.265625 20.3125 10.265625 20.171875 L 10.265625 20.136719 C 10.265625 19.957031 10.40625 19.851562 10.550781 19.851562 Z M 25.167969 19.851562 L 27.828125 19.851562 C 28.003906 19.851562 28.109375 19.957031 28.109375 20.101562 L 28.109375 20.136719 C 28.109375 20.3125 28.003906 20.417969 27.828125 20.417969 L 25.167969 20.417969 C 25.023438 20.417969 24.917969 20.3125 24.917969 20.171875 L 24.917969 20.101562 C 24.917969 19.957031 25.023438 19.851562 25.167969 19.851562 Z M 37.691406 18.859375 C 37.691406 18.964844 37.582031 19.070312 37.441406 19.070312 L 32.15625 19.070312 C 32.050781 19.070312 31.941406 19 31.941406 18.859375 L 31.941406 14.921875 C 31.941406 14.8125 32.050781 14.707031 32.15625 14.707031 L 37.441406 14.707031 C 37.582031 14.707031 37.65625 14.8125 37.65625 14.921875 Z M 34.53125 15.3125 C 34.53125 15.277344 34.496094 15.277344 34.496094 15.277344 L 32.546875 15.277344 C 32.511719 15.277344 32.511719 15.277344 32.511719 15.3125 L 32.511719 18.46875 C 32.511719 18.503906 32.511719 18.503906 32.546875 18.503906 L 34.496094 18.503906 C 34.496094 18.503906 34.53125 18.503906 34.53125 18.46875 Z M 37.121094 15.3125 C 37.121094 15.277344 37.085938 15.277344 37.085938 15.277344 L 35.101562 15.277344 C 35.101562 15.277344 35.101562 15.277344 35.101562 15.3125 L 35.101562 18.46875 C 35.101562 18.46875 35.101562 18.503906 35.101562 18.503906 L 37.085938 18.503906 C 37.085938 18.503906 37.121094 18.46875 37.121094 18.46875 Z M 28.074219 18.859375 C 28.074219 18.964844 27.96875 19.070312 27.828125 19.070312 L 25.167969 19.070312 C 25.023438 19.070312 24.953125 18.964844 24.953125 18.859375 L 24.953125 14.921875 C 24.953125 14.8125 25.023438 14.707031 25.167969 14.707031 L 27.828125 14.707031 C 27.96875 14.707031 28.074219 14.8125 28.074219 14.921875 Z M 27.507812 15.3125 C 27.507812 15.277344 27.507812 15.277344 27.472656 15.277344 L 25.519531 15.277344 C 25.519531 15.277344 25.519531 15.277344 25.519531 15.3125 L 25.519531 18.46875 C 25.519531 18.46875 25.519531 18.503906 25.519531 18.503906 L 27.472656 18.503906 C 27.507812 18.503906 27.507812 18.46875 27.507812 18.46875 Z M 23.074219 18.859375 C 23.074219 18.964844 22.964844 19.070312 22.824219 19.070312 L 20.128906 19.070312 C 20.023438 19.070312 19.914062 18.964844 19.914062 18.859375 L 19.914062 14.921875 C 19.914062 14.8125 20.023438 14.707031 20.128906 14.707031 L 22.824219 14.707031 C 22.964844 14.707031 23.074219 14.8125 23.074219 14.921875 Z M 22.503906 15.3125 C 22.503906 15.277344 22.46875 15.277344 22.46875 15.277344 L 20.519531 15.277344 C 20.484375 15.277344 20.484375 15.277344 20.484375 15.3125 L 20.484375 18.46875 C 20.484375 18.46875 20.484375 18.503906 20.519531 18.503906 L 22.46875 18.503906 C 22.46875 18.503906 22.503906 18.46875 22.503906 18.46875 Z M 16.046875 18.859375 C 16.046875 19 15.941406 19.070312 15.835938 19.070312 L 10.550781 19.070312 C 10.441406 19.070312 10.335938 18.964844 10.335938 18.859375 L 10.335938 14.921875 C 10.335938 14.8125 10.441406 14.707031 10.550781 14.707031 L 15.835938 14.707031 C 15.976562 14.707031 16.082031 14.8125 16.082031 14.921875 Z M 12.925781 15.3125 C 12.925781 15.277344 12.890625 15.277344 12.890625 15.277344 L 10.9375 15.277344 C 10.902344 15.277344 10.902344 15.277344 10.902344 15.3125 L 10.902344 18.46875 C 10.902344 18.46875 10.902344 18.503906 10.9375 18.503906 L 12.890625 18.503906 C 12.890625 18.503906 12.925781 18.46875 12.925781 18.46875 Z M 15.480469 15.3125 C 15.480469 15.277344 15.480469 15.277344 15.480469 15.277344 L 13.527344 15.277344 C 13.492188 15.277344 13.492188 15.277344 13.492188 15.3125 L 13.492188 18.46875 C 13.492188 18.46875 13.492188 18.503906 13.527344 18.503906 L 15.480469 18.503906 C 15.480469 18.503906 15.480469 18.46875 15.480469 18.46875 Z M 19.597656 13.039062 L 28.394531 13.039062 C 28.535156 13.039062 28.644531 13.148438 28.644531 13.289062 L 28.644531 13.324219 C 28.644531 13.464844 28.535156 13.609375 28.394531 13.609375 L 19.597656 13.609375 C 19.453125 13.609375 19.3125 13.464844 19.3125 13.324219 L 19.3125 13.289062 C 19.3125 13.148438 19.453125 13.039062 19.597656 13.039062 Z M 27.542969 11.941406 L 28.109375 11.941406 C 28.21875 11.941406 28.289062 12.011719 28.289062 12.117188 L 28.289062 12.152344 C 28.289062 12.261719 28.183594 12.367188 28.074219 12.367188 C 27.828125 12.332031 27.578125 12.332031 27.332031 12.367188 C 27.1875 12.367188 27.082031 12.261719 27.082031 12.117188 C 27.082031 11.691406 27.082031 11.300781 27.082031 10.875 C 27.082031 10.769531 27.1875 10.664062 27.292969 10.664062 L 27.332031 10.664062 C 27.4375 10.664062 27.507812 10.769531 27.507812 10.875 L 27.507812 11.90625 C 27.507812 11.941406 27.542969 11.941406 27.542969 11.941406 Z M 24.527344 11.089844 C 24.527344 11.089844 24.492188 11.089844 24.492188 11.125 L 24.492188 12.1875 C 24.492188 12.296875 24.421875 12.367188 24.316406 12.367188 L 24.277344 12.367188 C 24.171875 12.367188 24.066406 12.261719 24.066406 12.152344 L 24.066406 11.125 C 24.066406 11.089844 24.066406 11.089844 24.066406 11.089844 L 23.746094 11.089844 C 23.640625 11.089844 23.570312 10.984375 23.570312 10.875 C 23.570312 10.734375 23.675781 10.664062 23.78125 10.664062 L 24.777344 10.664062 C 24.882812 10.664062 24.988281 10.769531 24.988281 10.875 C 24.988281 10.984375 24.917969 11.054688 24.8125 11.089844 Z M 26.515625 11.515625 C 26.515625 11.65625 26.445312 11.691406 26.300781 11.691406 C 26.125 11.691406 25.980469 11.691406 25.839844 11.691406 C 25.839844 11.691406 25.804688 11.691406 25.804688 11.691406 L 25.804688 11.941406 C 25.804688 11.941406 25.839844 11.941406 25.839844 11.941406 L 26.445312 11.941406 C 26.550781 11.976562 26.65625 12.046875 26.65625 12.152344 C 26.621094 12.261719 26.550781 12.367188 26.445312 12.367188 C 26.300781 12.367188 26.019531 12.367188 25.628906 12.367188 C 25.484375 12.367188 25.414062 12.296875 25.414062 12.152344 C 25.414062 11.941406 25.414062 11.726562 25.414062 11.515625 C 25.414062 11.265625 25.414062 11.054688 25.414062 10.839844 C 25.449219 10.699219 25.519531 10.664062 25.664062 10.664062 C 26.019531 10.664062 26.300781 10.664062 26.445312 10.664062 C 26.550781 10.664062 26.65625 10.734375 26.65625 10.839844 C 26.65625 10.839844 26.65625 10.839844 26.65625 10.875 C 26.65625 10.945312 26.550781 11.054688 26.480469 11.054688 C 26.445312 11.054688 26.445312 11.054688 26.445312 11.054688 L 25.839844 11.054688 C 25.839844 11.054688 25.804688 11.054688 25.804688 11.089844 L 25.804688 11.300781 C 25.804688 11.300781 25.839844 11.335938 25.839844 11.335938 C 25.980469 11.300781 26.125 11.300781 26.300781 11.335938 C 26.445312 11.335938 26.515625 11.371094 26.515625 11.515625 Z M 23.320312 11.585938 C 23.285156 12.046875 22.859375 12.402344 22.363281 12.367188 C 21.902344 12.332031 21.511719 11.941406 21.546875 11.445312 C 21.582031 10.984375 22.007812 10.628906 22.503906 10.664062 C 22.964844 10.699219 23.355469 11.089844 23.320312 11.585938 Z M 22.894531 11.480469 C 22.894531 11.230469 22.648438 11.054688 22.398438 11.089844 C 22.152344 11.089844 21.972656 11.300781 21.972656 11.550781 C 22.007812 11.796875 22.222656 11.976562 22.46875 11.976562 C 22.71875 11.941406 22.929688 11.726562 22.894531 11.480469 Z M 20.410156 11.300781 C 20.519531 11.300781 20.589844 11.300781 20.695312 11.300781 C 20.695312 11.300781 20.730469 11.300781 20.730469 11.265625 L 20.730469 10.875 C 20.730469 10.734375 20.800781 10.664062 20.945312 10.664062 C 21.050781 10.664062 21.15625 10.734375 21.15625 10.839844 L 21.15625 12.152344 C 21.15625 12.261719 21.050781 12.367188 20.945312 12.367188 L 20.910156 12.367188 C 20.800781 12.367188 20.730469 12.261719 20.730469 12.152344 L 20.730469 11.691406 C 20.730469 11.691406 20.730469 11.691406 20.695312 11.691406 C 20.695312 11.691406 20.589844 11.691406 20.410156 11.691406 C 20.234375 11.691406 20.128906 11.691406 20.09375 11.691406 L 20.09375 12.152344 C 20.09375 12.261719 19.988281 12.367188 19.878906 12.367188 C 19.738281 12.367188 19.667969 12.261719 19.667969 12.152344 L 19.667969 10.839844 C 19.667969 10.734375 19.738281 10.664062 19.84375 10.664062 L 19.878906 10.664062 C 19.988281 10.664062 20.09375 10.734375 20.09375 10.875 L 20.09375 11.265625 C 20.09375 11.300781 20.09375 11.300781 20.128906 11.300781 C 20.199219 11.300781 20.304688 11.300781 20.410156 11.300781 Z M 30.59375 8.996094 C 30.59375 8.746094 30.382812 8.535156 30.132812 8.535156 L 17.859375 8.535156 C 17.609375 8.535156 17.394531 8.746094 17.394531 8.996094 C 17.394531 9.246094 17.609375 9.457031 17.859375 9.457031 L 30.132812 9.457031 C 30.382812 9.457031 30.59375 9.246094 30.59375 8.996094 Z M 29.992188 28.191406 C 29.992188 28.191406 29.992188 28.152344 29.992188 28.152344 L 29.992188 10.058594 C 29.992188 10.023438 29.992188 10.023438 29.992188 10.023438 L 18.035156 10.023438 C 18.035156 10.023438 18 10.023438 18 10.058594 L 18 28.152344 C 18 28.152344 18.035156 28.191406 18.035156 28.191406 Z M 30.558594 11.621094 L 30.558594 12.117188 C 30.558594 12.152344 30.558594 12.152344 30.558594 12.152344 L 39.214844 12.152344 C 39.394531 12.152344 39.535156 12.046875 39.535156 11.90625 L 39.535156 11.835938 C 39.535156 11.691406 39.394531 11.585938 39.214844 11.585938 L 30.558594 11.585938 C 30.558594 11.585938 30.558594 11.585938 30.558594 11.621094 Z M 17.46875 12.117188 L 17.46875 11.621094 C 17.46875 11.585938 17.433594 11.585938 17.433594 11.585938 L 8.773438 11.585938 C 8.597656 11.585938 8.457031 11.691406 8.457031 11.871094 C 8.457031 12.046875 8.597656 12.152344 8.773438 12.152344 L 17.433594 12.152344 C 17.433594 12.152344 17.46875 12.152344 17.46875 12.117188 Z M 8.953125 28.507812 L 17.042969 28.507812 C 17.042969 28.507812 17.078125 28.472656 17.078125 28.472656 C 17.183594 28.367188 17.289062 28.296875 17.433594 28.261719 C 17.433594 28.226562 17.46875 28.226562 17.46875 28.191406 L 17.46875 12.722656 C 17.46875 12.722656 17.433594 12.722656 17.433594 12.722656 L 8.953125 12.722656 C 8.917969 12.722656 8.917969 12.722656 8.917969 12.757812 L 8.917969 28.472656 C 8.917969 28.472656 8.953125 28.507812 8.953125 28.507812 Z M 39.074219 28.507812 C 39.074219 28.507812 39.074219 28.472656 39.074219 28.472656 L 39.074219 12.757812 C 39.074219 12.722656 39.074219 12.722656 39.074219 12.722656 L 30.558594 12.722656 L 30.558594 28.191406 C 30.558594 28.226562 30.558594 28.226562 30.59375 28.261719 C 30.699219 28.296875 30.84375 28.367188 30.914062 28.472656 C 30.949219 28.472656 30.949219 28.507812 30.984375 28.507812 Z M 30.628906 29.183594 C 30.628906 28.933594 30.417969 28.722656 30.167969 28.722656 L 17.820312 28.722656 C 17.574219 28.722656 17.359375 28.933594 17.359375 29.183594 L 17.359375 29.21875 C 17.359375 29.46875 17.574219 29.644531 17.820312 29.644531 L 30.167969 29.644531 C 30.417969 29.644531 30.628906 29.46875 30.628906 29.21875 Z M 31.054688 29.644531 C 31.160156 29.644531 31.304688 29.644531 31.550781 29.644531 C 33.929688 29.644531 36.449219 29.644531 39.109375 29.644531 C 39.320312 29.644531 39.535156 29.644531 39.570312 29.394531 C 39.570312 29.253906 39.535156 29.183594 39.464844 29.113281 C 39.429688 29.078125 39.320312 29.042969 39.144531 29.042969 C 37.867188 29.078125 35.207031 29.078125 31.199219 29.078125 C 31.160156 29.078125 31.160156 29.078125 31.160156 29.113281 C 31.160156 29.289062 31.125 29.46875 31.054688 29.609375 C 31.019531 29.609375 31.019531 29.609375 31.019531 29.609375 C 31.019531 29.644531 31.054688 29.644531 31.054688 29.644531 Z M 16.96875 29.644531 C 16.898438 29.503906 16.863281 29.359375 16.863281 29.21875 C 16.828125 29.148438 16.828125 29.078125 16.828125 29.078125 C 16.828125 29.078125 16.828125 29.042969 16.828125 29.042969 C 16.472656 29.078125 16.082031 29.078125 15.65625 29.078125 C 13.386719 29.078125 11.046875 29.078125 8.703125 29.078125 C 8.386719 29.078125 8.277344 29.503906 8.5625 29.644531 C 8.632812 29.644531 8.703125 29.644531 8.8125 29.644531 C 11.828125 29.644531 14.523438 29.644531 16.933594 29.644531 C 16.96875 29.644531 16.96875 29.644531 16.96875 29.644531 Z M 10.976562 36.847656 C 11.011719 36.847656 11.011719 36.847656 11.011719 36.8125 C 11.011719 36.421875 11.011719 35.816406 11.011719 35 C 11.011719 34.328125 11.046875 33.9375 11.046875 33.796875 C 11.4375 32.058594 13.601562 31.523438 14.769531 32.835938 C 15.089844 33.226562 15.269531 33.6875 15.269531 34.183594 C 15.269531 35.214844 15.269531 36.101562 15.269531 36.8125 C 15.269531 36.8125 15.304688 36.847656 15.304688 36.847656 L 17.433594 36.847656 C 17.433594 36.847656 17.46875 36.847656 17.46875 36.8125 L 17.46875 30.210938 L 8.953125 30.210938 C 8.953125 30.210938 8.953125 30.210938 8.953125 30.246094 L 8.953125 36.8125 C 8.953125 36.847656 8.953125 36.847656 8.988281 36.847656 Z M 39.074219 30.210938 L 30.558594 30.210938 C 30.558594 30.210938 30.558594 30.210938 30.558594 30.246094 L 30.558594 36.917969 L 32.511719 36.917969 C 32.546875 36.917969 32.546875 36.917969 32.546875 36.882812 C 32.546875 34.683594 32.546875 32.910156 32.546875 31.558594 C 32.546875 31.277344 32.757812 31.277344 32.972656 31.277344 C 33.929688 31.277344 35.027344 31.277344 36.304688 31.277344 C 36.519531 31.277344 36.730469 31.277344 36.730469 31.523438 C 36.730469 33.546875 36.730469 35.320312 36.730469 36.882812 C 36.730469 36.917969 36.730469 36.917969 36.769531 36.917969 L 39.039062 36.917969 C 39.074219 36.917969 39.074219 36.917969 39.074219 36.882812 Z M 18.957031 38.476562 L 20.660156 38.476562 C 20.660156 38.476562 20.660156 38.476562 20.660156 38.441406 C 20.304688 37.804688 20.660156 37.058594 21.371094 36.882812 C 21.40625 36.882812 21.40625 36.847656 21.40625 36.847656 C 21.40625 34.078125 21.40625 32.375 21.40625 31.738281 C 21.40625 31.453125 21.617188 31.488281 21.867188 31.488281 C 24.527344 31.488281 26.019531 31.488281 26.335938 31.488281 C 26.550781 31.488281 26.585938 31.632812 26.585938 31.808594 C 26.585938 34.078125 26.585938 35.746094 26.585938 36.847656 C 26.585938 36.847656 26.585938 36.882812 26.585938 36.882812 C 27.292969 36.988281 27.757812 37.839844 27.332031 38.441406 C 27.332031 38.476562 27.332031 38.476562 27.332031 38.476562 L 28.996094 38.476562 C 28.890625 38.300781 28.855469 38.125 28.855469 37.910156 C 28.890625 37.34375 29.386719 36.917969 29.957031 36.917969 C 29.992188 36.917969 29.992188 36.917969 29.992188 36.882812 L 29.992188 30.246094 C 29.992188 30.210938 29.992188 30.210938 29.957031 30.210938 L 18.035156 30.210938 C 18.035156 30.210938 18 30.210938 18 30.246094 L 18 36.847656 C 18 36.847656 18 36.847656 18.035156 36.847656 C 18.390625 36.882812 18.671875 37.023438 18.851562 37.308594 C 19.097656 37.625 19.136719 38.089844 18.921875 38.441406 C 18.921875 38.476562 18.921875 38.476562 18.957031 38.476562 Z M 36.199219 31.878906 C 36.199219 31.84375 36.164062 31.84375 36.128906 31.84375 L 33.148438 31.84375 C 33.113281 31.84375 33.113281 31.84375 33.113281 31.878906 L 33.113281 36.847656 C 33.113281 36.882812 33.113281 36.917969 33.148438 36.917969 L 36.128906 36.917969 C 36.164062 36.917969 36.199219 36.882812 36.199219 36.847656 Z M 23.746094 32.09375 C 23.746094 32.058594 23.746094 32.058594 23.710938 32.058594 L 22.007812 32.058594 C 21.972656 32.058594 21.972656 32.058594 21.972656 32.09375 L 21.972656 36.8125 C 21.972656 36.8125 21.972656 36.847656 22.007812 36.847656 L 23.710938 36.847656 C 23.746094 36.847656 23.746094 36.8125 23.746094 36.8125 Z M 26.019531 32.09375 C 26.019531 32.058594 26.019531 32.058594 25.980469 32.058594 L 24.316406 32.058594 C 24.316406 32.058594 24.277344 32.058594 24.277344 32.09375 L 24.277344 36.8125 C 24.277344 36.8125 24.316406 36.847656 24.316406 36.847656 L 25.980469 36.847656 C 26.019531 36.847656 26.019531 36.8125 26.019531 36.8125 Z M 11.613281 36.847656 L 14.699219 36.847656 L 14.734375 34.257812 C 14.734375 34.292969 14.734375 34.292969 14.734375 34.292969 C 14.734375 33.40625 14.0625 32.660156 13.175781 32.660156 L 13.140625 32.660156 C 13.175781 32.660156 13.175781 32.660156 13.175781 32.660156 C 12.289062 32.625 11.578125 33.335938 11.578125 34.222656 L 11.578125 36.8125 C 11.578125 36.847656 11.578125 36.847656 11.613281 36.847656 Z M 18.566406 37.945312 C 18.566406 37.664062 18.320312 37.414062 18.035156 37.414062 L 8.738281 37.414062 C 8.457031 37.414062 8.207031 37.664062 8.207031 37.945312 C 8.207031 38.230469 8.457031 38.476562 8.738281 38.476562 L 18.035156 38.476562 C 18.320312 38.476562 18.566406 38.230469 18.566406 37.945312 Z M 26.976562 37.910156 C 26.976562 37.664062 26.761719 37.414062 26.480469 37.414062 L 21.546875 37.414062 C 21.300781 37.414062 21.050781 37.664062 21.050781 37.910156 L 21.050781 37.945312 C 21.050781 38.230469 21.300781 38.441406 21.546875 38.441406 L 26.480469 38.441406 C 26.761719 38.441406 26.976562 38.230469 26.976562 37.945312 Z M 39.855469 37.980469 C 39.855469 37.699219 39.640625 37.484375 39.394531 37.484375 L 29.847656 37.484375 C 29.601562 37.484375 29.386719 37.699219 29.386719 37.980469 C 29.386719 38.230469 29.601562 38.441406 29.847656 38.441406 L 39.394531 38.441406 C 39.640625 38.441406 39.855469 38.230469 39.855469 37.980469 Z M 39.855469 37.980469 " fill-opacity="1" fill-rule="evenodd"/></g></svg>