<svg xmlns="http://www.w3.org/2000/svg" xmlns:xlink="http://www.w3.org/1999/xlink" width="64" zoomAndPan="magnify" viewBox="0 0 48 48" height="64" preserveAspectRatio="xMidYMid meet" version="1.0"><defs><clipPath id="e8f7dcacc0"><path d="M 5.191406 4.796875 L 42.660156 4.796875 L 42.660156 42.265625 L 5.191406 42.265625 Z M 5.191406 4.796875 " clip-rule="nonzero"/></clipPath></defs><g clip-path="url(#e8f7dcacc0)"><path fill="#ffffff" d="M 8.367188 37.464844 C 10.128906 36.042969 12.242188 34.890625 14.597656 34.105469 C 16.894531 33.335938 19.417969 32.914062 22.058594 32.914062 C 22.226562 32.914062 22.390625 32.914062 22.554688 32.917969 C 22.585938 31.535156 22.433594 30.117188 22.152344 28.839844 C 21.867188 27.5625 21.453125 26.4375 20.964844 25.648438 C 20.878906 25.664062 20.792969 25.675781 20.703125 25.675781 C 20.359375 25.675781 20.046875 25.546875 19.808594 25.332031 C 19.273438 25.8125 18.808594 26.320312 18.414062 26.859375 C 17.941406 27.507812 17.574219 28.203125 17.316406 28.9375 C 17.261719 29.105469 17.117188 29.234375 16.929688 29.25 C 16.679688 29.277344 16.457031 29.09375 16.433594 28.847656 C 16.324219 27.816406 16.421875 26.785156 16.722656 25.746094 C 16.953125 24.953125 17.304688 24.160156 17.773438 23.363281 C 17.359375 23.417969 16.9375 23.554688 16.5 23.773438 L 16.496094 23.773438 C 15.746094 24.148438 14.957031 24.757812 14.136719 25.605469 L 14.132812 25.605469 C 14.054688 25.6875 13.941406 25.742188 13.816406 25.742188 C 13.566406 25.75 13.359375 25.550781 13.355469 25.296875 C 13.332031 24.097656 13.707031 23.058594 14.488281 22.191406 C 15.125 21.480469 16.023438 20.890625 17.1875 20.421875 C 17.019531 20.269531 16.832031 20.117188 16.628906 19.964844 C 16.207031 19.644531 15.710938 19.320312 15.144531 18.996094 L 15.148438 18.996094 C 15.039062 18.933594 14.957031 18.832031 14.929688 18.699219 C 14.875 18.457031 15.03125 18.214844 15.273438 18.160156 C 16.230469 17.949219 17.15625 17.964844 18.058594 18.210938 C 18.832031 18.421875 19.585938 18.796875 20.316406 19.34375 C 20.90625 18.730469 21.554688 18.273438 22.261719 17.976562 C 23.082031 17.636719 23.976562 17.507812 24.945312 17.597656 C 25.070312 17.601562 25.191406 17.65625 25.277344 17.761719 C 25.4375 17.953125 25.414062 18.238281 25.21875 18.398438 C 24.828125 18.726562 24.519531 19.042969 24.292969 19.339844 L 24.265625 19.375 C 24.796875 19.316406 25.347656 19.335938 25.917969 19.429688 C 26.816406 19.578125 27.765625 19.914062 28.761719 20.433594 C 28.917969 20.507812 29.023438 20.667969 29.019531 20.851562 C 29.015625 21.101562 28.808594 21.300781 28.558594 21.296875 C 27.539062 21.28125 26.660156 21.359375 25.917969 21.535156 C 25.574219 21.617188 25.265625 21.71875 24.988281 21.84375 C 25.53125 22.074219 26.007812 22.355469 26.421875 22.691406 C 27.070312 23.210938 27.558594 23.851562 27.882812 24.609375 C 27.933594 24.730469 27.933594 24.875 27.867188 25 C 27.75 25.222656 27.476562 25.308594 27.253906 25.191406 C 26.386719 24.734375 25.585938 24.40625 24.859375 24.214844 C 24.421875 24.097656 24.015625 24.027344 23.632812 24.007812 C 23.644531 24.085938 23.652344 24.164062 23.652344 24.242188 C 23.652344 24.464844 23.597656 24.675781 23.503906 24.859375 C 24.035156 26.578125 24.449219 28.144531 24.746094 29.5625 C 25.023438 30.878906 25.195312 32.066406 25.265625 33.125 C 25.492188 33.152344 25.714844 33.1875 25.941406 33.222656 C 27.011719 31.414062 28.015625 28.101562 28.710938 24.71875 C 29.414062 21.265625 29.789062 17.761719 29.5625 15.714844 C 29.191406 15.699219 28.855469 15.539062 28.609375 15.292969 C 28.347656 15.027344 28.183594 14.667969 28.183594 14.269531 L 28.183594 14.226562 C 27.386719 14.292969 26.480469 14.597656 25.613281 15.019531 C 24.324219 15.648438 23.140625 16.527344 22.507812 17.28125 C 22.402344 17.40625 22.234375 17.46875 22.066406 17.433594 C 21.820312 17.382812 21.664062 17.140625 21.714844 16.894531 C 22.027344 15.429688 22.570312 14.234375 23.34375 13.3125 C 23.910156 12.632812 24.597656 12.105469 25.402344 11.726562 C 24.878906 11.621094 24.171875 11.609375 23.421875 11.671875 C 21.890625 11.796875 20.246094 12.226562 19.542969 12.738281 C 19.414062 12.835938 19.238281 12.863281 19.078125 12.792969 C 18.847656 12.6875 18.746094 12.421875 18.851562 12.191406 C 19.546875 10.660156 20.617188 9.574219 22.0625 8.945312 C 23.277344 8.410156 24.753906 8.207031 26.488281 8.332031 C 26.304688 8.128906 26.058594 7.933594 25.746094 7.742188 C 25.054688 7.324219 24.070312 6.960938 22.792969 6.648438 C 22.636719 6.621094 22.5 6.511719 22.445312 6.347656 C 22.367188 6.113281 22.492188 5.851562 22.730469 5.773438 C 24.257812 5.253906 25.6875 5.15625 27.011719 5.476562 C 28.191406 5.761719 29.277344 6.375 30.273438 7.320312 C 31.105469 6.363281 32.105469 5.675781 33.28125 5.261719 C 34.59375 4.800781 36.117188 4.679688 37.847656 4.90625 C 37.996094 4.925781 38.132812 5.023438 38.199219 5.167969 C 38.304688 5.398438 38.203125 5.667969 37.976562 5.769531 C 37.171875 6.136719 36.460938 6.554688 35.84375 7.019531 C 35.59375 7.207031 35.359375 7.402344 35.140625 7.605469 C 36.539062 7.480469 37.8125 7.671875 38.957031 8.1875 C 40.4375 8.851562 41.683594 10.046875 42.703125 11.773438 C 42.792969 11.910156 42.804688 12.089844 42.71875 12.238281 C 42.597656 12.457031 42.320312 12.539062 42.101562 12.414062 C 41.167969 11.894531 40.195312 11.535156 39.179688 11.328125 C 38.703125 11.234375 38.21875 11.171875 37.722656 11.144531 C 38.738281 11.773438 39.515625 12.484375 40.042969 13.28125 C 40.84375 14.480469 41.085938 15.859375 40.769531 17.410156 C 40.746094 17.527344 40.679688 17.636719 40.570312 17.703125 C 40.359375 17.839844 40.078125 17.777344 39.941406 17.566406 C 39.101562 16.25 38.1875 15.21875 37.191406 14.476562 C 36.566406 14.007812 35.910156 13.652344 35.222656 13.410156 C 35.808594 14.296875 36.234375 15.199219 36.492188 16.113281 C 36.851562 17.386719 36.886719 18.683594 36.601562 20 C 36.578125 20.148438 36.484375 20.285156 36.335938 20.351562 C 36.109375 20.453125 35.839844 20.351562 35.734375 20.121094 C 35.125 18.777344 34.511719 17.660156 33.898438 16.769531 C 33.433594 16.089844 32.964844 15.542969 32.503906 15.128906 C 32.480469 15.152344 32.460938 15.175781 32.4375 15.199219 C 32.390625 15.242188 32.34375 15.285156 32.289062 15.324219 C 32.300781 18.5 32.050781 21.660156 31.542969 24.808594 C 31.046875 27.894531 30.304688 30.972656 29.3125 34.035156 C 29.382812 34.058594 29.453125 34.082031 29.523438 34.105469 C 31.878906 34.890625 33.992188 36.042969 35.753906 37.464844 C 36.117188 37.632812 36.507812 37.871094 36.929688 38.1875 C 36.941406 38.195312 36.949219 38.203125 36.957031 38.210938 C 37.15625 38.355469 37.363281 38.464844 37.574219 38.535156 C 37.796875 38.609375 38.035156 38.644531 38.300781 38.644531 L 38.453125 38.644531 C 38.703125 38.644531 38.90625 38.847656 38.90625 39.097656 C 38.90625 39.351562 38.703125 39.554688 38.453125 39.554688 L 38.300781 39.554688 C 37.945312 39.554688 37.613281 39.5 37.289062 39.394531 C 36.984375 39.292969 36.695312 39.140625 36.417969 38.941406 C 36.410156 38.933594 36.398438 38.925781 36.386719 38.917969 C 34.414062 37.441406 33.367188 38.175781 32.398438 38.859375 C 31.730469 39.328125 31.097656 39.773438 30.238281 39.734375 C 29.378906 39.773438 28.742188 39.328125 28.074219 38.859375 C 27.105469 38.175781 26.0625 37.441406 24.085938 38.917969 C 23.507812 39.347656 22.78125 39.5625 22.058594 39.5625 C 21.351562 39.5625 20.640625 39.355469 20.066406 38.941406 C 20.054688 38.933594 20.042969 38.925781 20.035156 38.917969 C 18.058594 37.441406 17.011719 38.175781 16.042969 38.859375 C 15.378906 39.328125 14.742188 39.773438 13.882812 39.734375 C 13.023438 39.773438 12.386719 39.328125 11.722656 38.859375 C 10.753906 38.175781 9.707031 37.441406 7.734375 38.917969 C 7.449219 39.128906 7.152344 39.289062 6.828125 39.394531 C 6.507812 39.5 6.175781 39.554688 5.820312 39.554688 L 5.667969 39.554688 C 5.417969 39.554688 5.214844 39.351562 5.214844 39.097656 C 5.214844 38.847656 5.417969 38.644531 5.667969 38.644531 L 5.820312 38.644531 C 6.085938 38.644531 6.324219 38.609375 6.546875 38.535156 C 6.765625 38.460938 6.980469 38.347656 7.1875 38.1875 C 7.613281 37.871094 8.003906 37.632812 8.367188 37.464844 Z M 23.40625 31.074219 L 24.105469 31.074219 C 24.035156 30.648438 23.953125 30.207031 23.859375 29.746094 L 23.816406 29.550781 L 23.214844 29.550781 C 23.296875 30.046875 23.363281 30.558594 23.40625 31.074219 Z M 24.242188 31.984375 L 23.457031 31.984375 C 23.46875 32.308594 23.46875 32.632812 23.460938 32.953125 C 23.757812 32.96875 24.054688 32.992188 24.347656 33.019531 C 24.324219 32.6875 24.289062 32.34375 24.242188 31.984375 Z M 23.035156 28.640625 L 23.609375 28.640625 C 23.507812 28.210938 23.390625 27.765625 23.269531 27.308594 L 22.675781 27.308594 C 22.8125 27.730469 22.933594 28.175781 23.035156 28.640625 Z M 22.347656 26.398438 L 23.015625 26.398438 C 22.929688 26.109375 22.84375 25.8125 22.75 25.511719 C 22.613281 25.5625 22.460938 25.589844 22.304688 25.589844 C 22.183594 25.589844 22.0625 25.570312 21.945312 25.539062 C 22.085938 25.804688 22.222656 26.089844 22.347656 26.398438 Z M 28.144531 30.390625 L 29.433594 30.390625 C 29.75 29.195312 30.027344 27.996094 30.265625 26.796875 L 29.175781 26.796875 C 28.867188 28.066406 28.519531 29.289062 28.144531 30.390625 Z M 29.1875 31.300781 L 27.820312 31.300781 C 27.519531 32.097656 27.207031 32.804688 26.882812 33.398438 C 27.414062 33.503906 27.933594 33.632812 28.441406 33.773438 C 28.710938 32.949219 28.957031 32.125 29.1875 31.300781 Z M 29.386719 25.886719 L 30.4375 25.886719 C 30.511719 25.480469 30.582031 25.074219 30.648438 24.667969 C 30.773438 23.878906 30.886719 23.085938 30.980469 22.296875 L 30.066406 22.296875 C 29.933594 23.152344 29.777344 24.027344 29.597656 24.898438 C 29.53125 25.230469 29.460938 25.558594 29.386719 25.886719 Z M 30.199219 21.382812 L 31.082031 21.382812 C 31.183594 20.390625 31.257812 19.394531 31.308594 18.398438 L 30.492188 18.398438 C 30.441406 19.324219 30.339844 20.332031 30.199219 21.382812 Z M 30.53125 17.488281 L 31.347656 17.488281 C 31.371094 16.867188 31.382812 16.246094 31.382812 15.621094 C 31.085938 15.617188 30.808594 15.519531 30.582031 15.359375 C 30.539062 15.398438 30.496094 15.433594 30.449219 15.464844 C 30.519531 16.039062 30.546875 16.722656 30.53125 17.488281 Z M 11.480469 8.011719 C 10.511719 8.011719 9.632812 8.402344 8.996094 9.039062 L 9 9.039062 C 8.363281 9.675781 7.96875 10.554688 7.96875 11.523438 C 7.96875 12.476562 8.351562 13.34375 8.972656 13.976562 C 8.980469 13.988281 8.988281 13.996094 8.996094 14.003906 C 9.632812 14.640625 10.511719 15.035156 11.480469 15.035156 C 12.449219 15.035156 13.328125 14.640625 13.960938 14.003906 L 13.964844 14.003906 C 14.597656 13.367188 14.992188 12.492188 14.992188 11.523438 C 14.992188 10.566406 14.609375 9.699219 13.988281 9.066406 C 13.980469 9.058594 13.972656 9.046875 13.964844 9.039062 C 13.328125 8.402344 12.449219 8.011719 11.480469 8.011719 Z M 13.320312 9.683594 C 12.851562 9.210938 12.199219 8.921875 11.480469 8.921875 C 10.761719 8.921875 10.113281 9.210938 9.640625 9.683594 C 9.171875 10.152344 8.878906 10.804688 8.878906 11.523438 C 8.878906 12.230469 9.160156 12.871094 9.617188 13.339844 L 9.640625 13.363281 C 10.113281 13.832031 10.761719 14.125 11.480469 14.125 C 12.199219 14.125 12.851562 13.832031 13.320312 13.363281 C 13.792969 12.890625 14.082031 12.242188 14.082031 11.523438 C 14.082031 10.816406 13.800781 10.171875 13.34375 9.703125 Z M 11.027344 5.839844 L 11.027344 6.800781 C 11.027344 7.050781 11.230469 7.257812 11.480469 7.257812 C 11.730469 7.257812 11.9375 7.050781 11.9375 6.800781 L 11.9375 5.839844 C 11.9375 5.589844 11.730469 5.382812 11.480469 5.382812 C 11.230469 5.382812 11.027344 5.589844 11.027344 5.839844 Z M 11.027344 16.242188 L 11.027344 17.203125 C 11.027344 17.457031 11.230469 17.660156 11.480469 17.660156 C 11.730469 17.660156 11.9375 17.457031 11.9375 17.203125 L 11.9375 16.242188 C 11.9375 15.992188 11.730469 15.789062 11.480469 15.789062 C 11.230469 15.789062 11.027344 15.992188 11.027344 16.242188 Z M 17.164062 11.066406 L 16.203125 11.066406 C 15.949219 11.066406 15.746094 11.269531 15.746094 11.523438 C 15.746094 11.773438 15.949219 11.976562 16.203125 11.976562 L 17.164062 11.976562 C 17.414062 11.976562 17.617188 11.773438 17.617188 11.523438 C 17.617188 11.269531 17.414062 11.066406 17.164062 11.066406 Z M 6.757812 11.066406 L 5.796875 11.066406 C 5.546875 11.066406 5.34375 11.269531 5.34375 11.523438 C 5.34375 11.773438 5.546875 11.976562 5.796875 11.976562 L 6.757812 11.976562 C 7.011719 11.976562 7.214844 11.773438 7.214844 11.523438 C 7.214844 11.269531 7.011719 11.066406 6.757812 11.066406 Z M 15.820312 15.21875 L 15.140625 14.539062 C 14.964844 14.359375 14.675781 14.359375 14.496094 14.539062 C 14.320312 14.714844 14.320312 15.003906 14.496094 15.183594 L 15.175781 15.863281 C 15.355469 16.039062 15.644531 16.039062 15.820312 15.863281 C 16 15.683594 16 15.394531 15.820312 15.21875 Z M 8.464844 7.863281 L 7.785156 7.183594 C 7.605469 7.003906 7.320312 7.003906 7.140625 7.183594 C 6.964844 7.359375 6.964844 7.648438 7.140625 7.828125 L 7.820312 8.503906 C 8 8.683594 8.285156 8.683594 8.464844 8.503906 C 8.640625 8.328125 8.640625 8.039062 8.464844 7.863281 Z M 7.785156 15.863281 L 8.464844 15.183594 C 8.640625 15.003906 8.640625 14.714844 8.464844 14.539062 C 8.285156 14.359375 8 14.359375 7.820312 14.539062 L 7.140625 15.21875 C 6.964844 15.394531 6.964844 15.683594 7.140625 15.863281 C 7.320312 16.039062 7.605469 16.039062 7.785156 15.863281 Z M 15.140625 8.503906 L 15.820312 7.828125 C 16 7.648438 16 7.359375 15.820312 7.183594 C 15.644531 7.003906 15.355469 7.003906 15.175781 7.183594 L 14.496094 7.863281 C 14.320312 8.039062 14.320312 8.328125 14.496094 8.503906 C 14.675781 8.683594 14.964844 8.683594 15.140625 8.503906 Z M 33.78125 37.148438 C 32.417969 36.257812 30.890625 35.519531 29.234375 34.964844 C 27.035156 34.230469 24.609375 33.824219 22.058594 33.824219 C 19.511719 33.824219 17.085938 34.230469 14.886719 34.964844 C 13.230469 35.519531 11.703125 36.257812 10.339844 37.148438 C 11.070312 37.289062 11.667969 37.710938 12.246094 38.117188 C 12.785156 38.496094 13.300781 38.859375 13.855469 38.824219 C 13.875 38.824219 13.894531 38.824219 13.910156 38.824219 C 14.464844 38.859375 14.980469 38.496094 15.519531 38.117188 C 16.75 37.25 18.078125 36.316406 20.578125 38.1875 C 20.585938 38.195312 20.597656 38.203125 20.605469 38.210938 C 21.011719 38.503906 21.535156 38.652344 22.058594 38.652344 C 22.597656 38.652344 23.128906 38.5 23.542969 38.191406 L 23.542969 38.1875 C 26.042969 36.316406 27.371094 37.25 28.597656 38.117188 C 29.136719 38.496094 29.65625 38.859375 30.210938 38.824219 C 30.226562 38.824219 30.246094 38.824219 30.261719 38.824219 C 30.820312 38.859375 31.335938 38.496094 31.875 38.117188 C 32.449219 37.710938 33.050781 37.289062 33.78125 37.148438 Z M 5.667969 42.035156 L 5.820312 42.035156 C 6.175781 42.035156 6.507812 41.984375 6.828125 41.878906 C 7.148438 41.773438 7.445312 41.613281 7.730469 41.398438 L 7.734375 41.402344 C 9.707031 39.925781 10.753906 40.660156 11.722656 41.339844 C 12.386719 41.808594 13.027344 42.257812 13.882812 42.214844 C 14.742188 42.257812 15.378906 41.808594 16.042969 41.339844 C 17.011719 40.660156 18.058594 39.925781 20.035156 41.402344 C 20.042969 41.410156 20.054688 41.417969 20.066406 41.421875 C 20.640625 41.839844 21.351562 42.046875 22.058594 42.046875 C 22.78125 42.046875 23.507812 41.832031 24.085938 41.398438 L 24.085938 41.402344 C 26.0625 39.925781 27.105469 40.660156 28.074219 41.339844 C 28.742188 41.808594 29.378906 42.257812 30.238281 42.214844 C 31.09375 42.257812 31.730469 41.808594 32.398438 41.339844 C 33.367188 40.660156 34.414062 39.925781 36.386719 41.402344 C 36.398438 41.410156 36.410156 41.414062 36.417969 41.421875 C 36.695312 41.625 36.984375 41.777344 37.289062 41.878906 C 37.613281 41.984375 37.945312 42.035156 38.300781 42.035156 L 38.453125 42.035156 C 38.703125 42.035156 38.90625 41.832031 38.90625 41.582031 C 38.90625 41.332031 38.703125 41.125 38.453125 41.125 L 38.300781 41.125 C 38.035156 41.125 37.796875 41.089844 37.574219 41.015625 C 37.363281 40.945312 37.15625 40.839844 36.957031 40.695312 C 36.949219 40.6875 36.941406 40.679688 36.929688 40.671875 C 34.429688 38.800781 33.101562 39.734375 31.875 40.597656 C 31.335938 40.976562 30.820312 41.339844 30.261719 41.308594 C 30.246094 41.308594 30.230469 41.308594 30.210938 41.308594 C 29.65625 41.339844 29.140625 40.976562 28.597656 40.597656 C 27.371094 39.734375 26.042969 38.800781 23.542969 40.671875 C 23.128906 40.980469 22.597656 41.136719 22.058594 41.136719 C 21.535156 41.136719 21.011719 40.988281 20.605469 40.691406 C 20.597656 40.683594 20.585938 40.679688 20.578125 40.671875 C 18.078125 38.800781 16.75 39.734375 15.519531 40.597656 C 14.980469 40.976562 14.464844 41.339844 13.910156 41.308594 C 13.890625 41.308594 13.875 41.308594 13.859375 41.308594 C 13.300781 41.339844 12.785156 40.976562 12.246094 40.597656 C 11.019531 39.734375 9.691406 38.800781 7.1875 40.671875 L 7.191406 40.671875 L 7.1875 40.671875 C 6.980469 40.828125 6.769531 40.941406 6.546875 41.015625 C 6.324219 41.089844 6.085938 41.125 5.820312 41.125 L 5.667969 41.125 C 5.417969 41.125 5.214844 41.332031 5.214844 41.582031 C 5.214844 41.832031 5.417969 42.035156 5.667969 42.035156 Z M 32.859375 14.242188 C 33.464844 14.730469 34.058594 15.398438 34.644531 16.253906 C 35.0625 16.855469 35.472656 17.550781 35.882812 18.339844 C 35.890625 17.671875 35.800781 17.011719 35.617188 16.355469 C 35.292969 15.203125 34.667969 14.066406 33.75 12.949219 C 33.589844 12.753906 33.617188 12.46875 33.8125 12.308594 C 33.917969 12.222656 34.046875 12.191406 34.171875 12.210938 C 35.449219 12.414062 36.640625 12.929688 37.738281 13.75 C 38.539062 14.351562 39.292969 15.117188 39.992188 16.046875 C 39.976562 15.21875 39.738281 14.464844 39.285156 13.78125 C 38.605469 12.761719 37.429688 11.882812 35.761719 11.152344 C 35.535156 11.054688 35.429688 10.785156 35.527344 10.554688 C 35.597656 10.398438 35.742188 10.300781 35.898438 10.285156 C 37.097656 10.167969 38.25 10.21875 39.359375 10.441406 C 39.917969 10.550781 40.464844 10.707031 40.996094 10.90625 C 40.285156 10.046875 39.480469 9.417969 38.585938 9.015625 C 37.28125 8.429688 35.765625 8.324219 34.042969 8.699219 C 33.796875 8.75 33.554688 8.59375 33.5 8.347656 C 33.46875 8.199219 33.511719 8.050781 33.609375 7.945312 C 34.074219 7.339844 34.636719 6.789062 35.296875 6.292969 C 35.566406 6.085938 35.855469 5.890625 36.164062 5.703125 C 35.214844 5.710938 34.355469 5.847656 33.582031 6.121094 C 32.421875 6.53125 31.449219 7.25 30.667969 8.273438 C 30.515625 8.472656 30.230469 8.511719 30.03125 8.359375 C 30.007812 8.339844 29.988281 8.320312 29.96875 8.300781 C 29.003906 7.28125 27.945312 6.632812 26.796875 6.359375 C 26.121094 6.195312 25.40625 6.160156 24.65625 6.25 C 25.269531 6.46875 25.789062 6.707031 26.214844 6.964844 C 27.058594 7.472656 27.5625 8.074219 27.726562 8.761719 C 27.785156 9.007812 27.632812 9.253906 27.386719 9.3125 C 27.320312 9.328125 27.253906 9.328125 27.191406 9.3125 C 25.265625 9.074219 23.675781 9.226562 22.421875 9.777344 C 21.613281 10.128906 20.941406 10.65625 20.402344 11.347656 C 21.273438 11.058594 22.339844 10.84375 23.351562 10.765625 C 24.859375 10.640625 26.285156 10.820312 26.859375 11.492188 C 27.023438 11.683594 27 11.972656 26.808594 12.132812 C 26.761719 12.175781 26.703125 12.207031 26.644531 12.222656 C 25.578125 12.539062 24.710938 13.097656 24.042969 13.894531 C 23.65625 14.355469 23.335938 14.894531 23.078125 15.519531 C 23.707031 15.039062 24.445312 14.574219 25.214844 14.203125 C 26.328125 13.660156 27.519531 13.292969 28.554688 13.304688 C 28.570312 13.285156 28.589844 13.265625 28.609375 13.246094 C 28.730469 13.128906 28.871094 13.027344 29.027344 12.957031 C 29.027344 12.929688 29.023438 12.90625 29.023438 12.882812 C 29.023438 12.484375 29.1875 12.121094 29.449219 11.859375 C 29.710938 11.597656 30.074219 11.433594 30.472656 11.433594 C 30.871094 11.433594 31.234375 11.597656 31.496094 11.859375 C 31.742188 12.105469 31.902344 12.445312 31.917969 12.820312 C 32.113281 12.890625 32.289062 13.007812 32.4375 13.152344 C 32.699219 13.414062 32.863281 13.777344 32.863281 14.175781 C 32.863281 14.199219 32.859375 14.21875 32.859375 14.242188 Z M 23.023438 23.105469 C 23.65625 23.058594 24.34375 23.136719 25.089844 23.335938 C 25.445312 23.429688 25.8125 23.550781 26.191406 23.699219 C 26.085938 23.59375 25.972656 23.492188 25.855469 23.398438 C 25.3125 22.960938 24.628906 22.621094 23.804688 22.382812 C 23.5625 22.3125 23.425781 22.058594 23.492188 21.820312 C 23.519531 21.726562 23.578125 21.648438 23.648438 21.589844 C 24.183594 21.164062 24.871094 20.847656 25.710938 20.648438 C 25.96875 20.589844 26.242188 20.539062 26.53125 20.496094 C 26.273438 20.425781 26.019531 20.367188 25.773438 20.328125 C 24.988281 20.195312 24.253906 20.234375 23.570312 20.433594 C 23.332031 20.503906 23.078125 20.367188 23.007812 20.125 C 22.980469 20.039062 22.984375 19.949219 23.007812 19.867188 C 23.105469 19.511719 23.289062 19.152344 23.570312 18.785156 C 23.640625 18.695312 23.714844 18.601562 23.796875 18.511719 C 23.382812 18.558594 22.988281 18.660156 22.609375 18.816406 C 21.917969 19.109375 21.285156 19.585938 20.714844 20.253906 C 20.550781 20.445312 20.261719 20.46875 20.074219 20.304688 L 20.066406 20.300781 C 19.335938 19.703125 18.589844 19.296875 17.820312 19.089844 C 17.46875 18.992188 17.109375 18.9375 16.742188 18.925781 C 16.894531 19.03125 17.039062 19.132812 17.179688 19.238281 C 17.636719 19.585938 18.027344 19.941406 18.347656 20.296875 C 18.515625 20.484375 18.5 20.773438 18.3125 20.9375 C 18.265625 20.980469 18.210938 21.011719 18.15625 21.03125 C 16.808594 21.484375 15.808594 22.074219 15.164062 22.792969 C 14.816406 23.183594 14.566406 23.617188 14.421875 24.09375 C 14.988281 23.609375 15.546875 23.230469 16.09375 22.960938 C 16.972656 22.519531 17.828125 22.351562 18.65625 22.457031 C 18.90625 22.484375 19.082031 22.710938 19.050781 22.960938 C 19.042969 23.050781 19.003906 23.128906 18.953125 23.195312 C 18.316406 24.136719 17.863281 25.070312 17.59375 25.996094 C 17.527344 26.226562 17.472656 26.457031 17.429688 26.6875 C 17.507812 26.566406 17.59375 26.445312 17.679688 26.328125 C 18.148438 25.679688 18.710938 25.074219 19.371094 24.511719 C 19.363281 24.449219 19.359375 24.390625 19.359375 24.328125 C 19.359375 23.957031 19.507812 23.621094 19.753906 23.378906 L 19.753906 23.375 C 19.855469 23.269531 19.980469 23.183594 20.113281 23.117188 L 20.113281 23.082031 C 20.113281 22.710938 20.265625 22.375 20.507812 22.132812 L 20.507812 22.128906 C 20.75 21.886719 21.089844 21.734375 21.460938 21.734375 C 21.832031 21.734375 22.167969 21.886719 22.410156 22.128906 L 22.414062 22.132812 C 22.636719 22.355469 22.78125 22.65625 22.804688 22.992188 C 22.878906 23.023438 22.953125 23.058594 23.023438 23.105469 Z M 27.882812 24.609375 L 27.882812 24.613281 Z M 21.027344 23.019531 C 21.179688 23.058594 21.320312 23.121094 21.449219 23.207031 C 21.46875 23.1875 21.488281 23.171875 21.511719 23.15625 C 21.621094 23.074219 21.746094 23.011719 21.878906 22.964844 C 21.859375 22.890625 21.820312 22.824219 21.769531 22.773438 C 21.691406 22.695312 21.582031 22.644531 21.460938 22.644531 C 21.339844 22.644531 21.230469 22.695312 21.152344 22.773438 C 21.085938 22.835938 21.042969 22.925781 21.027344 23.019531 Z M 21.992188 23.9375 C 22.03125 24.0625 22.050781 24.191406 22.050781 24.328125 C 22.050781 24.414062 22.042969 24.5 22.027344 24.582031 C 22.042969 24.59375 22.0625 24.609375 22.082031 24.621094 C 22.144531 24.65625 22.222656 24.679688 22.304688 24.679688 C 22.425781 24.679688 22.535156 24.628906 22.613281 24.550781 C 22.691406 24.472656 22.742188 24.363281 22.742188 24.242188 C 22.742188 24.121094 22.691406 24.011719 22.613281 23.933594 L 22.597656 23.917969 L 22.589844 23.914062 L 22.589844 23.910156 L 22.585938 23.910156 C 22.511719 23.84375 22.414062 23.808594 22.304688 23.808594 C 22.207031 23.808594 22.121094 23.835938 22.046875 23.890625 C 22.027344 23.902344 22.011719 23.917969 21.992188 23.9375 Z M 21.015625 24.019531 C 20.933594 23.941406 20.824219 23.890625 20.703125 23.890625 C 20.585938 23.890625 20.476562 23.941406 20.394531 24.019531 C 20.316406 24.097656 20.269531 24.207031 20.269531 24.328125 C 20.269531 24.449219 20.316406 24.558594 20.394531 24.636719 C 20.476562 24.714844 20.585938 24.761719 20.703125 24.761719 C 20.824219 24.761719 20.933594 24.714844 21.015625 24.636719 L 21.011719 24.636719 C 21.089844 24.558594 21.140625 24.449219 21.140625 24.328125 C 21.140625 24.207031 21.09375 24.097656 21.015625 24.019531 Z M 29.9375 12.855469 C 30.113281 12.894531 30.277344 12.964844 30.421875 13.058594 L 30.460938 13.085938 C 30.617188 12.949219 30.800781 12.847656 31 12.789062 C 30.980469 12.675781 30.929688 12.578125 30.851562 12.503906 C 30.753906 12.40625 30.621094 12.347656 30.472656 12.347656 C 30.324219 12.347656 30.191406 12.40625 30.09375 12.503906 L 30.089844 12.503906 C 30 12.59375 29.941406 12.714844 29.9375 12.855469 Z M 29.996094 13.875 C 29.976562 13.855469 29.949219 13.835938 29.925781 13.820312 C 29.839844 13.765625 29.742188 13.734375 29.632812 13.734375 C 29.480469 13.734375 29.347656 13.792969 29.25 13.890625 C 29.15625 13.988281 29.09375 14.121094 29.09375 14.269531 C 29.09375 14.417969 29.152344 14.554688 29.25 14.648438 L 29.25 14.652344 C 29.347656 14.746094 29.480469 14.808594 29.632812 14.808594 C 29.742188 14.808594 29.84375 14.773438 29.929688 14.71875 C 29.96875 14.691406 30.003906 14.660156 30.039062 14.625 C 29.992188 14.480469 29.964844 14.332031 29.964844 14.175781 C 29.964844 14.074219 29.976562 13.972656 29.996094 13.875 Z M 31.792969 13.792969 C 31.699219 13.699219 31.5625 13.636719 31.414062 13.636719 C 31.265625 13.636719 31.132812 13.699219 31.035156 13.796875 L 31.03125 13.796875 C 30.9375 13.890625 30.878906 14.027344 30.878906 14.175781 C 30.878906 14.324219 30.9375 14.460938 31.03125 14.554688 L 31.035156 14.554688 C 31.132812 14.652344 31.265625 14.710938 31.414062 14.710938 C 31.5625 14.710938 31.699219 14.652344 31.792969 14.558594 L 31.792969 14.554688 C 31.890625 14.457031 31.949219 14.324219 31.949219 14.175781 C 31.949219 14.027344 31.890625 13.890625 31.792969 13.796875 Z M 31.792969 13.792969 " fill-opacity="1" fill-rule="evenodd"/></g></svg>