<svg xmlns="http://www.w3.org/2000/svg" xmlns:xlink="http://www.w3.org/1999/xlink" width="64" zoomAndPan="magnify" viewBox="0 0 48 48" height="64" preserveAspectRatio="xMidYMid meet" version="1.0"><defs><clipPath id="92c2535369"><path d="M 5.191406 5.242188 L 42.660156 5.242188 L 42.660156 41.976562 L 5.191406 41.976562 Z M 5.191406 5.242188 " clip-rule="nonzero"/></clipPath></defs><g clip-path="url(#92c2535369)"><path fill="#ffffff" d="M 39.726562 17.964844 C 41.851562 17.78125 43.4375 20.042969 42.546875 22.058594 C 42.140625 22.984375 41.285156 23.632812 40.292969 23.78125 C 38.761719 26.457031 35.273438 27.265625 32.722656 25.539062 C 31.816406 26.214844 30.628906 26.375 29.570312 25.960938 C 26.707031 27.613281 25.527344 28.503906 25.542969 32.074219 C 25.554688 34.933594 25.984375 37.746094 26.886719 40.421875 L 29.394531 40.421875 C 29.765625 40.421875 30.066406 40.722656 30.066406 41.09375 C 30.066406 41.460938 29.765625 41.761719 29.394531 41.761719 L 15.21875 41.761719 C 14.847656 41.761719 14.550781 41.460938 14.550781 41.09375 C 14.550781 40.722656 14.847656 40.421875 15.21875 40.421875 L 17.59375 40.421875 C 18.402344 39.039062 19.421875 36.414062 19.710938 34.058594 C 19.910156 32.429688 19.761719 30.96875 18.929688 30.289062 C 17.417969 29.050781 14.410156 27.414062 12.871094 26.089844 C 11.269531 26.941406 9.285156 26.429688 8.296875 24.910156 C 6.480469 25.027344 4.980469 23.457031 5.21875 21.625 C 5.285156 21.097656 5.496094 20.59375 5.839844 20.164062 C 5.859375 19.628906 6.003906 19.113281 6.25 18.652344 C 6.664062 17.878906 7.351562 17.285156 8.1875 16.996094 C 8.019531 16.433594 7.976562 15.847656 8.050781 15.277344 C 8.152344 14.515625 8.472656 13.785156 8.988281 13.179688 C 9.003906 12.378906 9.207031 11.609375 9.574219 10.921875 C 10.734375 8.761719 13.292969 7.773438 15.59375 8.589844 C 16.546875 5.679688 20.054688 4.496094 22.574219 6.25 C 25.113281 4.46875 28.613281 5.144531 30.332031 7.71875 C 30.742188 8.328125 31.023438 9.015625 31.148438 9.726562 C 34.203125 9.171875 36.824219 12.199219 35.902344 15.277344 C 37.664062 15.121094 39.289062 16.28125 39.726562 17.964844 Z M 28.347656 25.128906 C 28.285156 25.054688 28.222656 24.984375 28.164062 24.90625 C 27.039062 25.550781 25.410156 26.691406 24.660156 27.449219 C 24.246094 27.863281 23.507812 27.585938 23.519531 26.945312 L 23.507812 22.761719 C 23.085938 23.285156 22.503906 23.660156 21.851562 23.832031 L 21.863281 28.535156 C 21.863281 29.070312 21.253906 29.398438 20.800781 29.074219 L 17.421875 26.71875 C 16.988281 26.78125 16.546875 26.800781 16.113281 26.765625 C 17.328125 27.550781 18.871094 28.511719 19.777344 29.253906 C 21.03125 30.28125 21.289062 32.175781 21.039062 34.222656 C 20.769531 36.414062 19.910156 38.828125 19.109375 40.421875 L 25.484375 40.421875 C 24.621094 37.726562 24.222656 34.957031 24.207031 32.082031 C 24.199219 29.894531 24.617188 28.507812 25.480469 27.402344 C 26.179688 26.511719 27.121094 25.851562 28.347656 25.128906 Z M 26.507812 24.355469 C 25.890625 23.996094 25.429688 23.40625 25.238281 22.710938 C 25.105469 22.71875 24.976562 22.71875 24.84375 22.71875 L 24.851562 25.527344 C 25.363281 25.128906 25.941406 24.722656 26.507812 24.355469 Z M 25.207031 21.375 C 25.296875 20.976562 25.472656 20.597656 25.734375 20.265625 C 25.757812 19.773438 25.890625 19.292969 26.121094 18.863281 C 26.84375 17.511719 28.394531 16.847656 29.867188 17.242188 C 30.578125 15.5625 32.605469 14.867188 34.195312 15.769531 C 35.433594 14.011719 34.484375 11.550781 32.484375 11.074219 C 31.945312 10.945312 31.371094 10.980469 30.820312 11.207031 C 30.386719 11.386719 29.898438 11.070312 29.898438 10.59375 C 29.890625 9.046875 28.882812 7.609375 27.457031 6.960938 C 25.972656 6.292969 24.238281 6.539062 23.007812 7.601562 L 23.003906 7.601562 C 22.757812 7.820312 22.378906 7.820312 22.125 7.59375 C 20.175781 5.847656 17.050781 7.015625 16.726562 9.617188 C 16.667969 10.085938 16.148438 10.355469 15.734375 10.121094 C 13.957031 9.105469 11.707031 9.761719 10.75 11.550781 C 10.453125 12.105469 10.300781 12.738281 10.324219 13.394531 C 10.335938 13.578125 10.273438 13.761719 10.132812 13.902344 C 9.375 14.671875 9.148438 15.8125 9.535156 16.808594 C 9.785156 16.820312 10.042969 16.863281 10.289062 16.933594 C 11.046875 15.0625 13.324219 14.320312 15.039062 15.394531 C 17.292969 13.945312 20.273438 15.195312 20.886719 17.710938 C 22.867188 17.507812 24.503906 19.34375 24.152344 21.34375 C 24.507812 21.382812 24.851562 21.390625 25.207031 21.375 Z M 40.28125 19.332031 C 40.003906 19.265625 39.707031 19.28125 39.425781 19.398438 L 39.421875 19.398438 C 38.988281 19.578125 38.5 19.261719 38.5 18.785156 C 38.492188 17.5 37.25 16.425781 35.890625 16.625 C 35.460938 16.6875 35.050781 16.871094 34.722656 17.15625 C 34.472656 17.371094 34.09375 17.375 33.839844 17.144531 C 32.808594 16.222656 31.148438 16.839844 30.976562 18.21875 L 30.972656 18.21875 C 30.917969 18.691406 30.398438 18.957031 29.980469 18.722656 C 28.621094 17.945312 26.996094 19.011719 27.066406 20.480469 C 27.09375 21.089844 26.480469 21.007812 26.472656 22.03125 C 26.464844 22.839844 27.328125 23.578125 28.210938 23.351562 C 28.519531 23.265625 28.855469 23.414062 28.992188 23.71875 C 29.414062 24.628906 30.457031 25.074219 31.40625 24.746094 C 31.664062 24.660156 32.003906 24.457031 32.179688 24.25 C 32.417969 23.964844 32.839844 23.929688 33.121094 24.167969 C 34.5625 25.390625 36.660156 25.429688 38.144531 24.261719 C 38.613281 23.890625 39 23.421875 39.261719 22.875 C 39.367188 22.644531 39.597656 22.484375 39.867188 22.480469 C 41.246094 22.46875 41.976562 20.828125 41.050781 19.796875 C 40.839844 19.558594 40.570312 19.398438 40.28125 19.332031 Z M 20.523438 25.179688 C 20.089844 25.601562 19.585938 25.949219 19.039062 26.21875 L 20.527344 27.257812 Z M 21.542969 19.078125 C 21.234375 19.003906 20.898438 19.023438 20.582031 19.15625 C 20.148438 19.335938 19.660156 19.019531 19.65625 18.542969 C 19.652344 17.113281 18.277344 15.929688 16.769531 16.144531 C 16.300781 16.214844 15.851562 16.414062 15.476562 16.734375 C 15.226562 16.953125 14.847656 16.953125 14.597656 16.726562 C 13.445312 15.695312 11.59375 16.382812 11.40625 17.925781 L 11.402344 17.925781 C 11.34375 18.390625 10.828125 18.660156 10.410156 18.421875 C 8.910156 17.570312 7.09375 18.730469 7.171875 20.378906 C 7.183594 20.5625 7.121094 20.746094 6.984375 20.886719 C 6.195312 21.6875 6.476562 23.019531 7.492188 23.453125 C 7.792969 23.585938 8.140625 23.621094 8.480469 23.539062 C 8.789062 23.453125 9.125 23.601562 9.265625 23.902344 C 9.730469 24.917969 10.890625 25.410156 11.945312 25.046875 C 12.230469 24.945312 12.609375 24.726562 12.804688 24.492188 C 13.042969 24.207031 13.464844 24.171875 13.746094 24.414062 C 15.328125 25.75 17.628906 25.796875 19.253906 24.515625 C 19.769531 24.109375 20.191406 23.589844 20.480469 22.992188 C 20.585938 22.761719 20.816406 22.601562 21.085938 22.597656 C 22.625 22.585938 23.4375 20.75 22.40625 19.597656 C 22.167969 19.335938 21.867188 19.15625 21.542969 19.078125 Z M 21.542969 19.078125 " fill-opacity="1" fill-rule="nonzero"/></g></svg>