<svg xmlns="http://www.w3.org/2000/svg" xmlns:xlink="http://www.w3.org/1999/xlink" width="64" zoomAndPan="magnify" viewBox="0 0 48 48" height="64" preserveAspectRatio="xMidYMid meet" version="1.0"><defs><clipPath id="812b0f386f"><path d="M 5.191406 11.050781 L 42.660156 11.050781 L 42.660156 36 L 5.191406 36 Z M 5.191406 11.050781 " clip-rule="nonzero"/></clipPath></defs><g clip-path="url(#812b0f386f)"><path fill="#ffffff" d="M 42.792969 29.640625 C 42.761719 29.886719 42.734375 30.027344 42.738281 30.222656 C 42.753906 30.878906 42.765625 31.265625 42.769531 31.382812 C 42.800781 31.945312 42.785156 32.328125 42.71875 32.523438 C 42.519531 33.136719 42.070312 33.476562 41.371094 33.542969 C 41.335938 33.546875 41.308594 33.578125 41.308594 33.613281 C 41.296875 34.253906 41.304688 34.839844 41.320312 35.378906 C 41.335938 35.832031 41.070312 35.953125 40.636719 35.949219 C 39.65625 35.941406 38.953125 35.941406 38.527344 35.957031 C 38.058594 35.972656 37.800781 35.792969 37.792969 35.320312 C 37.789062 35 37.765625 34.460938 37.726562 33.695312 C 37.722656 33.625 37.664062 33.566406 37.59375 33.570312 L 10.351562 33.570312 C 10.300781 33.570312 10.253906 33.613281 10.253906 33.667969 C 10.238281 34.566406 10.226562 35.175781 10.210938 35.484375 C 10.195312 35.769531 10.046875 35.921875 9.757812 35.945312 C 9.6875 35.949219 8.898438 35.953125 7.386719 35.960938 C 6.914062 35.960938 6.679688 35.753906 6.683594 35.332031 C 6.6875 34.859375 6.691406 34.292969 6.691406 33.636719 C 6.691406 33.609375 6.671875 33.585938 6.644531 33.585938 C 5.859375 33.5 5.261719 32.929688 5.203125 32.121094 C 5.203125 32.082031 5.199219 31.351562 5.191406 29.921875 C 5.1875 29.445312 5.234375 29.105469 5.332031 28.902344 C 5.667969 28.179688 6.117188 28.015625 6.847656 27.859375 C 6.882812 27.855469 6.910156 27.824219 6.910156 27.785156 C 6.925781 26.859375 6.9375 26.113281 6.9375 25.558594 C 6.945312 23.21875 7.988281 21.554688 10.066406 20.570312 C 10.101562 20.550781 10.125 20.519531 10.125 20.480469 C 10.113281 17.96875 10.105469 15.53125 10.105469 13.164062 C 10.105469 12.292969 10.699219 11.527344 11.46875 11.210938 C 11.726562 11.105469 12.226562 11.054688 12.964844 11.054688 C 24.667969 11.050781 32.15625 11.054688 35.421875 11.066406 C 35.597656 11.066406 35.816406 11.101562 36.074219 11.117188 C 36.113281 11.121094 36.15625 11.128906 36.199219 11.140625 C 36.949219 11.367188 37.457031 11.816406 37.722656 12.492188 C 37.816406 12.734375 37.867188 13.097656 37.863281 13.589844 C 37.859375 16.636719 37.855469 18.945312 37.855469 20.515625 C 37.855469 20.574219 37.890625 20.621094 37.941406 20.644531 C 39.667969 21.300781 40.726562 22.824219 41.015625 24.613281 C 41.058594 24.894531 41.070312 25.417969 41.046875 26.183594 C 41.035156 26.652344 41.035156 27.179688 41.050781 27.773438 C 41.054688 27.859375 41.113281 27.929688 41.199219 27.941406 L 41.652344 28.019531 C 41.65625 28.019531 41.664062 28.023438 41.671875 28.023438 C 42.1875 28.214844 42.53125 28.574219 42.703125 29.09375 C 42.78125 29.332031 42.808594 29.511719 42.792969 29.640625 Z M 23.078125 20.214844 C 23.074219 20.242188 23.09375 20.265625 23.121094 20.269531 C 23.121094 20.269531 23.125 20.269531 23.125 20.269531 L 24.78125 20.296875 C 24.832031 20.296875 24.871094 20.257812 24.871094 20.210938 C 24.871094 20.210938 24.871094 20.207031 24.871094 20.203125 C 24.828125 19.214844 24.8125 18.023438 24.824219 16.632812 C 24.832031 15.828125 25.484375 15.332031 26.25 15.328125 C 28.335938 15.3125 30.785156 15.308594 33.605469 15.324219 C 34.433594 15.328125 35.0625 15.988281 35.078125 16.792969 C 35.082031 17.121094 35.082031 18.070312 35.082031 19.640625 C 35.082031 19.851562 35.039062 19.984375 34.996094 20.171875 C 34.984375 20.234375 35.023438 20.296875 35.085938 20.308594 C 35.09375 20.3125 35.101562 20.3125 35.109375 20.3125 L 36.941406 20.3125 C 36.996094 20.3125 37.039062 20.265625 37.039062 20.210938 C 37.042969 18.277344 37.042969 16.078125 37.039062 13.621094 C 37.039062 13.269531 37.003906 13 36.9375 12.816406 C 36.761719 12.34375 36.257812 11.929688 35.761719 11.929688 C 22.824219 11.929688 15.0625 11.921875 12.476562 11.917969 C 12.085938 11.914062 11.824219 11.957031 11.691406 12.046875 C 11.078125 12.445312 10.964844 12.832031 10.972656 13.660156 C 11 15.566406 10.996094 17.761719 10.96875 20.246094 C 10.96875 20.285156 11 20.316406 11.039062 20.316406 L 12.960938 20.316406 C 13.011719 20.316406 13.050781 20.277344 13.050781 20.226562 C 13.050781 20.21875 13.046875 20.207031 13.042969 20.199219 C 12.960938 19.96875 12.917969 19.714844 12.917969 19.429688 C 12.917969 18.441406 12.917969 17.519531 12.917969 16.660156 C 12.921875 15.898438 13.550781 15.332031 14.300781 15.324219 C 15.628906 15.3125 17.925781 15.3125 21.1875 15.316406 C 21.722656 15.316406 22.078125 15.351562 22.25 15.425781 C 22.582031 15.5625 22.839844 15.808594 23.023438 16.15625 C 23.132812 16.363281 23.175781 16.703125 23.152344 17.183594 C 23.144531 17.367188 23.144531 18.183594 23.148438 19.628906 C 23.152344 19.832031 23.089844 20.082031 23.078125 20.214844 Z M 22.292969 16.792969 C 22.292969 16.460938 22.023438 16.191406 21.691406 16.191406 L 14.382812 16.179688 C 14.050781 16.175781 13.78125 16.445312 13.78125 16.78125 L 13.773438 19.617188 C 13.773438 19.953125 14.042969 20.222656 14.375 20.222656 L 21.683594 20.234375 C 22.019531 20.234375 22.289062 19.964844 22.289062 19.632812 Z M 34.214844 16.777344 C 34.214844 16.449219 33.949219 16.183594 33.621094 16.183594 L 26.25 16.183594 C 25.921875 16.183594 25.65625 16.449219 25.65625 16.777344 L 25.65625 19.636719 C 25.65625 19.964844 25.921875 20.230469 26.25 20.230469 L 33.621094 20.230469 C 33.949219 20.230469 34.214844 19.964844 34.214844 19.636719 Z M 24.003906 27.863281 C 29.992188 27.863281 35.394531 27.867188 40.199219 27.875 C 40.226562 27.875 40.25 27.855469 40.25 27.828125 C 40.25 27.824219 40.25 27.824219 40.25 27.824219 C 40.246094 27.539062 40.238281 26.867188 40.230469 25.816406 C 40.226562 25.515625 40.210938 25.234375 40.183594 24.980469 C 39.976562 23.160156 38.945312 21.816406 37.214844 21.285156 C 36.828125 21.167969 36.460938 21.109375 36.109375 21.105469 C 35.992188 21.105469 31.957031 21.105469 24.003906 21.101562 C 16.050781 21.101562 12.015625 21.101562 11.898438 21.101562 C 11.546875 21.105469 11.179688 21.164062 10.792969 21.285156 C 9.0625 21.8125 8.03125 23.160156 7.824219 24.980469 C 7.796875 25.234375 7.78125 25.511719 7.777344 25.8125 C 7.769531 26.867188 7.761719 27.535156 7.753906 27.824219 C 7.753906 27.851562 7.777344 27.871094 7.804688 27.871094 C 12.613281 27.867188 18.011719 27.863281 24.003906 27.863281 Z M 23.992188 32.691406 C 28.246094 32.691406 34.015625 32.691406 41.300781 32.695312 C 41.613281 32.695312 41.816406 32.535156 41.90625 32.210938 C 41.90625 32.207031 41.90625 32.203125 41.90625 32.203125 L 41.90625 29.421875 C 41.90625 29.40625 41.90625 29.390625 41.902344 29.375 C 41.75 28.957031 41.484375 28.742188 41.109375 28.742188 C 36.246094 28.738281 30.539062 28.734375 23.992188 28.734375 C 17.445312 28.734375 11.738281 28.738281 6.875 28.742188 C 6.5 28.742188 6.234375 28.957031 6.085938 29.375 C 6.078125 29.390625 6.078125 29.40625 6.078125 29.421875 L 6.074219 32.203125 C 6.074219 32.203125 6.074219 32.207031 6.078125 32.210938 C 6.167969 32.535156 6.371094 32.695312 6.683594 32.695312 C 13.96875 32.691406 19.738281 32.691406 23.992188 32.691406 Z M 38.609375 34.980469 C 38.613281 35.039062 38.664062 35.089844 38.722656 35.089844 L 40.359375 35.089844 C 40.425781 35.089844 40.476562 35.039062 40.476562 34.972656 L 40.476562 33.648438 C 40.476562 33.585938 40.425781 33.535156 40.359375 33.535156 L 38.65625 33.535156 C 38.589844 33.535156 38.539062 33.585938 38.539062 33.648438 C 38.539062 33.652344 38.539062 33.65625 38.539062 33.65625 Z M 9.394531 33.640625 C 9.394531 33.601562 9.359375 33.566406 9.316406 33.566406 L 7.578125 33.566406 C 7.535156 33.566406 7.5 33.601562 7.5 33.640625 L 7.5 35.011719 C 7.5 35.054688 7.535156 35.089844 7.578125 35.089844 L 9.316406 35.089844 C 9.359375 35.089844 9.394531 35.054688 9.394531 35.011719 Z M 9.394531 33.640625 " fill-opacity="1" fill-rule="nonzero"/></g></svg>