<svg xmlns="http://www.w3.org/2000/svg" xmlns:xlink="http://www.w3.org/1999/xlink" width="64" zoomAndPan="magnify" viewBox="0 0 48 48" height="64" preserveAspectRatio="xMidYMid meet" version="1.0"><defs><clipPath id="cc8036ab4d"><path d="M 5.191406 37 L 42.660156 37 L 42.660156 41 L 5.191406 41 Z M 5.191406 37 " clip-rule="nonzero"/></clipPath><clipPath id="680ca66b1f"><path d="M 37 8 L 42.660156 8 L 42.660156 20 L 37 20 Z M 37 8 " clip-rule="nonzero"/></clipPath><clipPath id="2e5a225d8c"><path d="M 23 15 L 42.660156 15 L 42.660156 17 L 23 17 Z M 23 15 " clip-rule="nonzero"/></clipPath><clipPath id="98eb287db1"><path d="M 5.191406 8 L 11 8 L 11 20 L 5.191406 20 Z M 5.191406 8 " clip-rule="nonzero"/></clipPath><clipPath id="4eb1497086"><path d="M 5.191406 15 L 25 15 L 25 17 L 5.191406 17 Z M 5.191406 15 " clip-rule="nonzero"/></clipPath></defs><g clip-path="url(#cc8036ab4d)"><path fill="#ffffff" d="M 41.660156 40.925781 L 6.332031 40.925781 C 5.703125 40.925781 5.191406 40.414062 5.191406 39.785156 L 5.191406 38.183594 C 5.191406 37.554688 5.703125 37.042969 6.332031 37.042969 L 41.660156 37.042969 C 42.285156 37.042969 42.800781 37.554688 42.800781 38.183594 L 42.800781 39.785156 C 42.800781 40.414062 42.285156 40.925781 41.660156 40.925781 Z M 6.332031 38.011719 C 6.242188 38.011719 6.167969 38.085938 6.167969 38.175781 L 6.167969 39.785156 C 6.167969 39.875 6.242188 39.949219 6.332031 39.949219 L 41.660156 39.949219 C 41.75 39.949219 41.820312 39.875 41.820312 39.785156 L 41.820312 38.183594 C 41.820312 38.09375 41.75 38.019531 41.660156 38.019531 L 6.332031 38.019531 Z M 6.332031 38.011719 " fill-opacity="1" fill-rule="nonzero"/></g><path fill="#ffffff" d="M 40.347656 38.011719 C 40.082031 38.011719 39.859375 37.792969 39.859375 37.523438 L 39.859375 19.65625 C 39.859375 19.386719 40.082031 19.167969 40.347656 19.167969 C 40.617188 19.167969 40.835938 19.386719 40.835938 19.65625 L 40.835938 37.53125 C 40.835938 37.800781 40.617188 38.011719 40.347656 38.011719 Z M 40.347656 38.011719 " fill-opacity="1" fill-rule="nonzero"/><path fill="#ffffff" d="M 26.226562 19.851562 C 24.726562 19.851562 23.507812 18.628906 23.507812 17.132812 L 23.507812 9.089844 C 23.507812 8.820312 23.726562 8.601562 23.996094 8.601562 L 27.40625 8.601562 C 27.414062 8.601562 27.414062 8.601562 27.421875 8.601562 L 39.070312 8.601562 L 39.070312 7.0625 L 23.996094 7.0625 C 23.726562 7.0625 23.507812 6.84375 23.507812 6.574219 C 23.507812 6.304688 23.726562 6.085938 23.996094 6.085938 L 39.558594 6.085938 C 39.828125 6.085938 40.046875 6.304688 40.046875 6.574219 L 40.046875 9.089844 C 40.046875 9.359375 39.828125 9.578125 39.558594 9.578125 L 27.984375 9.578125 L 28.9375 15.730469 C 28.9375 15.757812 28.945312 15.78125 28.945312 15.804688 L 28.945312 17.132812 C 28.9375 18.628906 27.722656 19.851562 26.226562 19.851562 Z M 24.484375 9.578125 L 24.484375 17.132812 C 24.484375 18.09375 25.265625 18.875 26.226562 18.875 C 27.1875 18.875 27.96875 18.09375 27.96875 17.132812 L 27.96875 15.835938 L 27 9.578125 Z M 24.484375 9.578125 " fill-opacity="1" fill-rule="nonzero"/><path fill="#ffffff" d="M 30.742188 19.851562 C 29.203125 19.851562 27.960938 18.605469 27.960938 17.066406 L 27.960938 15.804688 C 27.960938 15.535156 28.179688 15.316406 28.449219 15.316406 C 28.714844 15.316406 28.9375 15.535156 28.9375 15.804688 L 28.9375 17.066406 C 28.9375 18.058594 29.75 18.875 30.742188 18.875 C 31.738281 18.875 32.550781 18.058594 32.550781 17.066406 L 32.550781 16.082031 C 32.550781 15.933594 32.535156 15.796875 32.5 15.660156 L 30.9375 9.210938 C 30.875 8.949219 31.035156 8.683594 31.296875 8.625 C 31.558594 8.558594 31.824219 8.722656 31.882812 8.984375 L 33.445312 15.429688 C 33.496094 15.640625 33.527344 15.871094 33.527344 16.089844 L 33.527344 17.074219 C 33.527344 18.597656 32.28125 19.851562 30.742188 19.851562 Z M 30.742188 19.851562 " fill-opacity="1" fill-rule="nonzero"/><path fill="#ffffff" d="M 35.335938 19.597656 C 33.796875 19.597656 32.550781 18.351562 32.550781 16.816406 L 32.550781 16.074219 C 32.550781 15.804688 32.769531 15.585938 33.039062 15.585938 C 33.308594 15.585938 33.527344 15.804688 33.527344 16.074219 L 33.527344 16.816406 C 33.527344 17.808594 34.339844 18.621094 35.335938 18.621094 C 36.328125 18.621094 37.140625 17.808594 37.140625 16.816406 L 37.140625 15.933594 L 34.871094 9.59375 C 34.78125 9.34375 34.910156 9.058594 35.164062 8.96875 C 35.414062 8.878906 35.699219 9.007812 35.789062 9.261719 L 38.085938 15.675781 C 38.101562 15.722656 38.117188 15.78125 38.117188 15.835938 L 38.117188 16.796875 C 38.117188 18.351562 36.871094 19.597656 35.335938 19.597656 Z M 35.335938 19.597656 " fill-opacity="1" fill-rule="nonzero"/><g clip-path="url(#680ca66b1f)"><path fill="#ffffff" d="M 39.972656 19.851562 C 38.410156 19.851562 37.148438 18.582031 37.148438 17.027344 L 37.148438 15.855469 C 37.148438 15.585938 37.371094 15.367188 37.636719 15.367188 C 37.90625 15.367188 38.125 15.585938 38.125 15.855469 L 38.125 17.019531 C 38.125 18.035156 38.957031 18.867188 39.972656 18.867188 C 40.992188 18.867188 41.820312 18.035156 41.820312 17.019531 L 41.820312 15.953125 L 39.101562 9.277344 C 39.003906 9.023438 39.121094 8.738281 39.371094 8.640625 C 39.625 8.542969 39.910156 8.65625 40.007812 8.910156 L 42.757812 15.675781 C 42.78125 15.730469 42.789062 15.796875 42.789062 15.863281 L 42.789062 17.027344 C 42.800781 18.582031 41.527344 19.851562 39.972656 19.851562 Z M 39.972656 19.851562 " fill-opacity="1" fill-rule="nonzero"/></g><g clip-path="url(#2e5a225d8c)"><path fill="#ffffff" d="M 42.3125 16.34375 L 23.996094 16.34375 C 23.726562 16.34375 23.507812 16.121094 23.507812 15.855469 C 23.507812 15.585938 23.726562 15.367188 23.996094 15.367188 L 42.3125 15.367188 C 42.578125 15.367188 42.800781 15.585938 42.800781 15.855469 C 42.800781 16.121094 42.578125 16.34375 42.3125 16.34375 Z M 42.3125 16.34375 " fill-opacity="1" fill-rule="nonzero"/></g><path fill="#ffffff" d="M 7.640625 38.011719 C 7.375 38.011719 7.152344 37.792969 7.152344 37.523438 L 7.152344 19.65625 C 7.152344 19.386719 7.375 19.167969 7.640625 19.167969 C 7.910156 19.167969 8.128906 19.386719 8.128906 19.65625 L 8.128906 37.53125 C 8.128906 37.800781 7.910156 38.011719 7.640625 38.011719 Z M 7.640625 38.011719 " fill-opacity="1" fill-rule="nonzero"/><path fill="#ffffff" d="M 21.765625 19.851562 C 20.265625 19.851562 19.046875 18.628906 19.046875 17.132812 L 19.046875 15.804688 C 19.046875 15.78125 19.046875 15.757812 19.054688 15.730469 L 20.007812 9.578125 L 8.429688 9.578125 C 8.164062 9.578125 7.941406 9.359375 7.941406 9.089844 L 7.941406 6.574219 C 7.941406 6.304688 8.164062 6.085938 8.429688 6.085938 L 23.996094 6.085938 C 24.265625 6.085938 24.484375 6.304688 24.484375 6.574219 C 24.484375 6.84375 24.265625 7.0625 23.996094 7.0625 L 8.921875 7.0625 L 8.921875 8.601562 L 20.570312 8.601562 C 20.578125 8.601562 20.578125 8.601562 20.585938 8.601562 L 23.996094 8.601562 C 24.265625 8.601562 24.484375 8.820312 24.484375 9.089844 L 24.484375 17.132812 C 24.484375 18.628906 23.261719 19.851562 21.765625 19.851562 Z M 20.03125 15.835938 L 20.03125 17.132812 C 20.03125 18.09375 20.8125 18.875 21.773438 18.875 C 22.734375 18.875 23.515625 18.09375 23.515625 17.132812 L 23.515625 9.578125 L 21.007812 9.578125 Z M 20.03125 15.835938 " fill-opacity="1" fill-rule="nonzero"/><path fill="#ffffff" d="M 17.246094 19.851562 C 15.707031 19.851562 14.464844 18.605469 14.464844 17.066406 L 14.464844 16.082031 C 14.464844 15.863281 14.488281 15.640625 14.542969 15.421875 L 16.109375 8.976562 C 16.171875 8.714844 16.433594 8.550781 16.695312 8.617188 C 16.953125 8.683594 17.117188 8.941406 17.050781 9.203125 L 15.488281 15.652344 C 15.457031 15.789062 15.441406 15.933594 15.441406 16.074219 L 15.441406 17.058594 C 15.441406 18.050781 16.253906 18.867188 17.246094 18.867188 C 18.242188 18.867188 19.054688 18.050781 19.054688 17.058594 L 19.054688 15.796875 C 19.054688 15.527344 19.273438 15.308594 19.542969 15.308594 C 19.8125 15.308594 20.03125 15.527344 20.03125 15.796875 L 20.03125 17.058594 C 20.03125 18.597656 18.777344 19.851562 17.246094 19.851562 Z M 17.246094 19.851562 " fill-opacity="1" fill-rule="nonzero"/><path fill="#ffffff" d="M 12.65625 19.597656 C 11.117188 19.597656 9.871094 18.351562 9.871094 16.816406 L 9.871094 15.855469 C 9.871094 15.796875 9.878906 15.738281 9.90625 15.691406 L 12.191406 9.269531 C 12.28125 9.015625 12.558594 8.886719 12.820312 8.976562 C 13.070312 9.066406 13.203125 9.351562 13.113281 9.601562 L 10.847656 15.933594 L 10.847656 16.816406 C 10.847656 17.808594 11.664062 18.621094 12.65625 18.621094 C 13.648438 18.621094 14.464844 17.808594 14.464844 16.816406 L 14.464844 16.074219 C 14.464844 15.804688 14.683594 15.585938 14.953125 15.585938 C 15.21875 15.585938 15.441406 15.804688 15.441406 16.074219 L 15.441406 16.816406 C 15.441406 18.351562 14.1875 19.597656 12.65625 19.597656 Z M 12.65625 19.597656 " fill-opacity="1" fill-rule="nonzero"/><g clip-path="url(#98eb287db1)"><path fill="#ffffff" d="M 8.015625 19.851562 C 6.453125 19.851562 5.191406 18.582031 5.191406 17.027344 L 5.191406 15.855469 C 5.191406 15.789062 5.207031 15.730469 5.222656 15.667969 L 7.976562 8.902344 C 8.074219 8.648438 8.367188 8.535156 8.609375 8.632812 C 8.863281 8.730469 8.976562 9.023438 8.878906 9.269531 L 6.160156 15.945312 L 6.160156 17.011719 C 6.160156 18.027344 6.992188 18.859375 8.007812 18.859375 C 9.027344 18.859375 9.855469 18.027344 9.855469 17.011719 L 9.855469 15.855469 C 9.855469 15.585938 10.074219 15.367188 10.34375 15.367188 C 10.613281 15.367188 10.832031 15.585938 10.832031 15.855469 L 10.832031 17.019531 C 10.847656 18.582031 9.578125 19.851562 8.015625 19.851562 Z M 8.015625 19.851562 " fill-opacity="1" fill-rule="nonzero"/></g><g clip-path="url(#4eb1497086)"><path fill="#ffffff" d="M 23.996094 16.34375 L 5.679688 16.34375 C 5.410156 16.34375 5.191406 16.121094 5.191406 15.855469 C 5.191406 15.585938 5.410156 15.367188 5.679688 15.367188 L 23.996094 15.367188 C 24.265625 15.367188 24.484375 15.585938 24.484375 15.855469 C 24.484375 16.121094 24.265625 16.34375 23.996094 16.34375 Z M 23.996094 16.34375 " fill-opacity="1" fill-rule="nonzero"/></g><path fill="#ffffff" d="M 21.039062 38.011719 L 10.359375 38.011719 C 10.09375 38.011719 9.871094 37.792969 9.871094 37.523438 L 9.871094 22.269531 C 9.871094 22 10.09375 21.78125 10.359375 21.78125 L 21.046875 21.78125 C 21.316406 21.78125 21.535156 22 21.535156 22.269531 L 21.535156 37.523438 C 21.527344 37.800781 21.316406 38.011719 21.039062 38.011719 Z M 10.847656 37.035156 L 20.558594 37.035156 L 20.558594 22.757812 L 10.847656 22.757812 Z M 10.847656 37.035156 " fill-opacity="1" fill-rule="nonzero"/><path fill="#ffffff" d="M 18.597656 31.636719 C 17.980469 31.636719 17.484375 31.132812 17.484375 30.523438 C 17.484375 29.910156 17.988281 29.40625 18.597656 29.40625 C 19.21875 29.40625 19.714844 29.910156 19.714844 30.523438 C 19.714844 31.132812 19.21875 31.636719 18.597656 31.636719 Z M 18.597656 30.375 C 18.515625 30.375 18.460938 30.441406 18.460938 30.515625 C 18.460938 30.59375 18.523438 30.652344 18.597656 30.652344 C 18.671875 30.652344 18.738281 30.585938 18.738281 30.515625 C 18.746094 30.441406 18.679688 30.375 18.597656 30.375 Z M 18.597656 30.375 " fill-opacity="1" fill-rule="nonzero"/><path fill="#ffffff" d="M 37.484375 33.558594 L 24.191406 33.558594 C 23.921875 33.558594 23.703125 33.339844 23.703125 33.070312 L 23.703125 22.269531 C 23.703125 22 23.921875 21.78125 24.191406 21.78125 L 37.484375 21.78125 C 37.753906 21.78125 37.972656 22 37.972656 22.269531 L 37.972656 33.070312 C 37.972656 33.339844 37.753906 33.558594 37.484375 33.558594 Z M 24.679688 32.582031 L 36.996094 32.582031 L 36.996094 22.757812 L 24.679688 22.757812 Z M 24.679688 32.582031 " fill-opacity="1" fill-rule="nonzero"/><path fill="#ffffff" d="M 27.820312 30.15625 C 27.691406 30.15625 27.570312 30.105469 27.472656 30.007812 C 27.285156 29.8125 27.285156 29.503906 27.480469 29.316406 L 31.882812 25.019531 C 32.078125 24.832031 32.386719 24.832031 32.574219 25.027344 C 32.761719 25.222656 32.761719 25.53125 32.566406 25.71875 L 28.164062 30.019531 C 28.066406 30.105469 27.941406 30.15625 27.820312 30.15625 Z M 27.820312 30.15625 " fill-opacity="1" fill-rule="nonzero"/><path fill="#ffffff" d="M 30.964844 30.488281 C 30.832031 30.488281 30.710938 30.441406 30.613281 30.34375 C 30.425781 30.148438 30.433594 29.839844 30.621094 29.652344 L 34.210938 26.167969 C 34.40625 25.980469 34.714844 25.988281 34.902344 26.175781 C 35.089844 26.371094 35.082031 26.679688 34.894531 26.867188 L 31.304688 30.351562 C 31.214844 30.441406 31.09375 30.488281 30.964844 30.488281 Z M 30.964844 30.488281 " fill-opacity="1" fill-rule="nonzero"/></svg>