<svg xmlns="http://www.w3.org/2000/svg" xmlns:xlink="http://www.w3.org/1999/xlink" width="64" zoomAndPan="magnify" viewBox="0 0 48 48" height="64" preserveAspectRatio="xMidYMid meet" version="1.0"><defs><clipPath id="b38d3ac9cd"><path d="M 8.035156 15 L 39.628906 15 L 39.628906 42.171875 L 8.035156 42.171875 Z M 8.035156 15 " clip-rule="nonzero"/></clipPath><clipPath id="a8372a45e9"><path d="M 33 9 L 39.628906 9 L 39.628906 19 L 33 19 Z M 33 9 " clip-rule="nonzero"/></clipPath><clipPath id="66c30d6b95"><path d="M 8.035156 4.703125 L 19 4.703125 L 19 19 L 8.035156 19 Z M 8.035156 4.703125 " clip-rule="nonzero"/></clipPath></defs><g clip-path="url(#b38d3ac9cd)"><path fill="#ffffff" d="M 33.992188 42.296875 L 8.578125 42.296875 C 8.28125 42.296875 8.035156 42.054688 8.035156 41.757812 L 8.035156 16.054688 C 8.035156 15.855469 8.144531 15.683594 8.308594 15.582031 C 8.46875 15.484375 8.6875 15.484375 8.851562 15.582031 L 11.582031 17.183594 L 14.957031 15.222656 C 15.125 15.121094 15.34375 15.121094 15.515625 15.230469 L 18.90625 17.363281 L 21.757812 15.476562 C 21.929688 15.355469 22.152344 15.355469 22.335938 15.464844 L 25.636719 17.4375 L 28.519531 15.257812 C 28.71875 15.105469 29 15.113281 29.191406 15.265625 L 31.378906 17.046875 L 33.667969 15.402344 C 33.847656 15.265625 34.101562 15.265625 34.289062 15.394531 L 37.527344 17.574219 L 38.53125 17.066406 C 38.703125 16.984375 38.902344 16.992188 39.058594 17.085938 C 39.21875 17.183594 39.320312 17.355469 39.320312 17.546875 L 39.320312 40.011719 C 39.320312 40.046875 39.320312 40.074219 39.308594 40.109375 C 39.300781 40.15625 39.292969 40.191406 39.273438 40.238281 C 39.238281 40.335938 39.164062 40.417969 39.074219 40.480469 C 39.058594 40.488281 39.03125 40.507812 39.011719 40.515625 C 38.992188 40.527344 38.964844 40.535156 38.949219 40.542969 L 34.183594 42.261719 C 34.128906 42.28125 34.082031 42.289062 34.019531 42.296875 C 34.019531 42.296875 34 42.296875 33.992188 42.296875 Z M 9.121094 41.214844 L 33.449219 41.214844 L 33.449219 16.914062 L 31.6875 18.179688 C 31.488281 18.324219 31.214844 18.3125 31.027344 18.160156 L 28.847656 16.386719 L 26.007812 18.53125 C 25.835938 18.667969 25.589844 18.675781 25.402344 18.566406 L 22.082031 16.585938 L 19.222656 18.476562 C 19.042969 18.59375 18.816406 18.59375 18.636719 18.484375 L 15.226562 16.332031 L 11.863281 18.289062 C 11.691406 18.386719 11.480469 18.386719 11.320312 18.289062 L 9.132812 17.003906 L 9.132812 41.214844 Z M 36.46875 36.972656 L 34.941406 40.832031 L 38 39.730469 Z M 34.535156 16.875 L 34.535156 38.90625 L 35.882812 35.496094 C 35.964844 35.296875 36.144531 35.171875 36.351562 35.152344 C 36.5625 35.136719 36.761719 35.253906 36.859375 35.433594 L 38.234375 37.921875 L 38.234375 18.441406 L 37.738281 18.695312 C 37.566406 18.785156 37.347656 18.765625 37.183594 18.65625 Z M 34.535156 16.875 " fill-opacity="1" fill-rule="nonzero"/></g><g clip-path="url(#a8372a45e9)"><path fill="#ffffff" d="M 37.492188 18.75 C 37.328125 18.75 37.167969 18.675781 37.058594 18.539062 C 36.878906 18.304688 36.921875 17.960938 37.15625 17.78125 C 38.832031 16.488281 38.929688 14.894531 38.847656 14.074219 C 38.722656 12.878906 38.054688 11.804688 37.195312 11.394531 C 35.53125 10.609375 34.671875 11.511719 34.660156 11.523438 C 34.453125 11.738281 34.117188 11.757812 33.894531 11.550781 C 33.675781 11.351562 33.65625 11.007812 33.867188 10.78125 C 33.921875 10.71875 35.285156 9.289062 37.664062 10.410156 C 38.875 10.980469 39.761719 12.371094 39.933594 13.957031 C 40.125 15.753906 39.363281 17.464844 37.835938 18.640625 C 37.726562 18.710938 37.609375 18.75 37.492188 18.75 Z M 37.492188 18.75 " fill-opacity="1" fill-rule="nonzero"/></g><path fill="#ffffff" d="M 29.433594 16.703125 C 29.21875 16.703125 29.019531 16.578125 28.929688 16.371094 C 27.914062 13.882812 29.136719 11.234375 30.863281 10.410156 C 33.242188 9.28125 34.605469 10.71875 34.660156 10.78125 C 34.859375 10.996094 34.851562 11.339844 34.632812 11.550781 C 34.417969 11.75 34.074219 11.738281 33.867188 11.523438 C 33.828125 11.488281 32.960938 10.617188 31.332031 11.394531 C 30.050781 12 29.179688 14.089844 29.941406 15.964844 C 30.050781 16.242188 29.921875 16.558594 29.640625 16.667969 C 29.570312 16.695312 29.496094 16.703125 29.433594 16.703125 Z M 29.433594 16.703125 " fill-opacity="1" fill-rule="nonzero"/><path fill="#ffffff" d="M 34.542969 11.46875 C 34.527344 11.46875 34.507812 11.46875 34.480469 11.46875 C 34.191406 11.433594 33.972656 11.179688 34 10.890625 C 34.011719 10.773438 34.019531 10.664062 34.039062 10.554688 C 34.117188 8.628906 32.175781 8.078125 32.085938 8.058594 C 31.792969 7.976562 31.621094 7.679688 31.703125 7.390625 C 31.785156 7.101562 32.085938 6.929688 32.375 7.007812 C 32.996094 7.179688 33.902344 7.644531 34.507812 8.476562 C 35.367188 6.070312 36.96875 5.273438 37.050781 5.238281 C 37.183594 5.171875 37.339844 5.164062 37.484375 5.21875 C 37.617188 5.273438 37.738281 5.382812 37.789062 5.527344 C 37.808594 5.5625 38.160156 6.484375 38.054688 7.617188 C 37.953125 8.683594 37.410156 10.148438 35.414062 11.023438 C 35.304688 11.070312 35.1875 11.078125 35.078125 11.0625 C 35.003906 11.296875 34.789062 11.46875 34.542969 11.46875 Z M 36.929688 6.621094 C 36.378906 7.117188 35.574219 8.113281 35.222656 9.902344 C 36.261719 9.371094 36.839844 8.574219 36.949219 7.542969 C 36.996094 7.199219 36.976562 6.882812 36.929688 6.621094 Z M 36.929688 6.621094 " fill-opacity="1" fill-rule="nonzero"/><path fill="#ffffff" d="M 24.839844 18.132812 C 24.542969 18.132812 24.296875 17.890625 24.296875 17.589844 L 24.296875 10.664062 C 24.296875 10.554688 24.332031 10.445312 24.386719 10.363281 L 26.195312 7.667969 C 26.285156 7.523438 26.449219 7.445312 26.613281 7.433594 C 26.785156 7.425781 26.945312 7.496094 27.054688 7.625 L 29.40625 10.402344 C 29.488281 10.5 29.535156 10.628906 29.535156 10.753906 L 29.535156 15.492188 C 29.535156 15.792969 29.289062 16.035156 28.992188 16.035156 C 28.691406 16.035156 28.449219 15.792969 28.449219 15.492188 L 28.449219 10.953125 L 26.683594 8.882812 L 25.363281 10.84375 L 25.363281 17.601562 C 25.382812 17.890625 25.136719 18.132812 24.839844 18.132812 Z M 24.839844 18.132812 " fill-opacity="1" fill-rule="nonzero"/><path fill="#ffffff" d="M 26.648438 8.355469 L 20.171875 8.355469 C 19.875 8.355469 19.628906 8.113281 19.628906 7.816406 L 19.628906 5.582031 C 19.628906 5.28125 19.875 5.039062 20.171875 5.039062 L 26.648438 5.039062 C 26.945312 5.039062 27.191406 5.28125 27.191406 5.582031 L 27.191406 7.816406 C 27.191406 8.113281 26.945312 8.355469 26.648438 8.355469 Z M 20.714844 7.273438 L 26.105469 7.273438 L 26.105469 6.125 L 20.714844 6.125 Z M 20.714844 7.273438 " fill-opacity="1" fill-rule="nonzero"/><path fill="#ffffff" d="M 18.246094 17.835938 C 17.949219 17.835938 17.703125 17.589844 17.703125 17.292969 L 17.703125 10.445312 C 17.703125 10.328125 17.742188 10.21875 17.8125 10.128906 L 19.738281 7.496094 C 19.921875 7.253906 20.253906 7.199219 20.5 7.378906 C 20.742188 7.5625 20.796875 7.894531 20.617188 8.140625 L 18.796875 10.628906 L 18.796875 17.300781 C 18.789062 17.589844 18.554688 17.835938 18.246094 17.835938 Z M 18.246094 17.835938 " fill-opacity="1" fill-rule="nonzero"/><path fill="#ffffff" d="M 24.585938 11.304688 L 18.390625 11.304688 C 18.09375 11.304688 17.847656 11.0625 17.847656 10.761719 C 17.847656 10.464844 18.09375 10.21875 18.390625 10.21875 L 24.597656 10.21875 C 24.894531 10.21875 25.136719 10.464844 25.136719 10.761719 C 25.136719 11.0625 24.894531 11.304688 24.585938 11.304688 Z M 24.585938 11.304688 " fill-opacity="1" fill-rule="nonzero"/><g clip-path="url(#66c30d6b95)"><path fill="#ffffff" d="M 11.382812 18.132812 C 11.21875 18.132812 11.058594 18.0625 10.957031 17.925781 C 10.867188 17.808594 8.652344 14.90625 8.21875 11.152344 C 7.621094 5.953125 9.746094 4.902344 11.066406 4.730469 C 13.164062 4.46875 16.9375 6.917969 18.773438 13.1875 C 18.851562 13.476562 18.691406 13.773438 18.402344 13.855469 C 18.113281 13.9375 17.8125 13.773438 17.730469 13.484375 C 16.78125 10.257812 15.378906 8.382812 14.375 7.390625 C 13.066406 6.085938 11.871094 5.714844 11.203125 5.796875 C 9.050781 6.078125 9.078125 9.199219 9.292969 11.023438 C 9.691406 14.460938 11.789062 17.230469 11.816406 17.257812 C 11.996094 17.492188 11.953125 17.835938 11.71875 18.015625 C 11.617188 18.097656 11.5 18.132812 11.382812 18.132812 Z M 11.382812 18.132812 " fill-opacity="1" fill-rule="nonzero"/></g><path fill="#ffffff" d="M 14.855469 11.613281 C 14.71875 11.613281 14.585938 11.566406 14.484375 11.460938 C 13.824219 10.835938 12.9375 10.484375 12.023438 10.484375 C 11.726562 10.484375 11.480469 10.238281 11.480469 9.941406 C 11.480469 9.640625 11.71875 9.398438 12.023438 9.398438 C 13.210938 9.386719 14.375 9.859375 15.234375 10.671875 C 15.453125 10.878906 15.460938 11.222656 15.253906 11.441406 C 15.136719 11.550781 14.992188 11.613281 14.855469 11.613281 Z M 14.855469 11.613281 " fill-opacity="1" fill-rule="nonzero"/><path fill="#ffffff" d="M 15.5625 15.292969 C 15.445312 15.292969 15.335938 15.257812 15.234375 15.183594 C 14.601562 14.707031 13.824219 14.398438 13.039062 14.316406 C 12.738281 14.289062 12.523438 14.019531 12.550781 13.71875 C 12.578125 13.421875 12.847656 13.203125 13.144531 13.230469 C 14.148438 13.332031 15.101562 13.703125 15.894531 14.316406 C 16.128906 14.496094 16.175781 14.839844 15.996094 15.078125 C 15.886719 15.222656 15.722656 15.292969 15.5625 15.292969 Z M 15.5625 15.292969 " fill-opacity="1" fill-rule="nonzero"/></svg>