<svg xmlns="http://www.w3.org/2000/svg" xmlns:xlink="http://www.w3.org/1999/xlink" width="64" zoomAndPan="magnify" viewBox="0 0 48 48" height="64" preserveAspectRatio="xMidYMid meet" version="1.0"><defs><clipPath id="63dab16930"><path d="M 5.191406 4.703125 L 42.660156 4.703125 L 42.660156 42.171875 L 5.191406 42.171875 Z M 5.191406 4.703125 " clip-rule="nonzero"/></clipPath></defs><g clip-path="url(#63dab16930)"><path fill="#ffffff" d="M 23.996094 4.703125 C 18.855469 4.703125 14.066406 6.769531 10.5625 10.324219 L 10.5625 6.046875 C 10.5625 5.304688 9.960938 4.703125 9.222656 4.703125 C 8.480469 4.703125 7.878906 5.304688 7.878906 6.046875 L 7.878906 14.105469 C 7.878906 14.152344 7.898438 14.195312 7.90625 14.242188 C 7.914062 14.328125 7.929688 14.40625 7.957031 14.492188 C 7.984375 14.585938 8.023438 14.671875 8.070312 14.757812 C 8.105469 14.816406 8.140625 14.871094 8.183594 14.921875 C 8.253906 15.011719 8.335938 15.089844 8.429688 15.160156 C 8.453125 15.179688 8.46875 15.207031 8.496094 15.222656 C 8.515625 15.238281 8.542969 15.238281 8.566406 15.25 C 8.671875 15.3125 8.777344 15.351562 8.894531 15.382812 C 8.957031 15.394531 9.011719 15.410156 9.070312 15.417969 C 9.121094 15.421875 9.167969 15.445312 9.222656 15.445312 L 17.28125 15.445312 C 18.019531 15.445312 18.621094 14.84375 18.621094 14.105469 C 18.621094 13.363281 18.019531 12.761719 17.28125 12.761719 L 11.949219 12.761719 C 14.988281 9.371094 19.320312 7.386719 23.996094 7.386719 C 32.882812 7.386719 40.113281 14.617188 40.113281 23.503906 C 40.113281 32.394531 32.882812 39.621094 23.996094 39.621094 C 15.105469 39.621094 7.878906 32.394531 7.878906 23.503906 C 7.878906 22.765625 7.277344 22.164062 6.535156 22.164062 C 5.792969 22.164062 5.191406 22.765625 5.191406 23.503906 C 5.191406 33.871094 13.625 42.308594 23.996094 42.308594 C 34.363281 42.308594 42.800781 33.871094 42.800781 23.503906 C 42.800781 13.136719 34.363281 4.703125 23.996094 4.703125 Z M 23.996094 4.703125 " fill-opacity="1" fill-rule="nonzero"/></g><path fill="#ffffff" d="M 22.683594 12.761719 C 21.941406 12.761719 21.339844 13.363281 21.339844 14.105469 L 21.339844 24.847656 C 21.339844 25.589844 21.941406 26.191406 22.683594 26.191406 L 33.398438 26.191406 C 34.136719 26.191406 34.742188 25.589844 34.742188 24.847656 C 34.742188 24.105469 34.136719 23.503906 33.398438 23.503906 L 24.023438 23.503906 L 24.023438 14.105469 C 24.023438 13.363281 23.421875 12.761719 22.683594 12.761719 Z M 22.683594 12.761719 " fill-opacity="1" fill-rule="nonzero"/></svg>